<svg xmlns="http://www.w3.org/2000/svg" viewBox="0 0 132.41 181.01">
  <defs>
    <style>
      .cls-1 {
        fill: #c0440c;
      }

      .cls-2 {
        fill: #ac2f24;
      }

      .cls-3 {
        fill: #f0a98f;
      }

      .cls-4 {
        fill: #393d45;
      }

      .cls-5 {
        fill: #032733;
      }

      .cls-6 {
        fill: #d4d4d4;
      }

      .cls-7 {
        fill: #8f99b6;
      }

      .cls-8 {
        fill: #eaeaea;
      }

      .cls-9 {
        fill: #d8826c;
      }

      .cls-10 {
        fill: #fff;
      }

      .cls-11 {
        fill: #7f5242;
      }

      .cls-12 {
        fill: #400404;
      }

      .cls-13 {
        fill: #390a0a;
      }

      .cls-14 {
        fill: #f08671;
      }

      .cls-15 {
        fill: #99360a;
      }

      .cls-16 {
        fill: #712311;
      }

      .cls-17 {
        fill: #d5503b;
      }
    </style>
  </defs>
  <title>자산 1</title>
  <g id="레이어_2" data-name="레이어 2">
    <g id="레이어_1-2" data-name="레이어 1">
      <path class="cls-1" d="M72.75,24.67c-1.45-2.85-2.37-11.1-4.19-15.26-2.1-4.8-6-5.7-9.5-5.33a10.05,10.05,0,0,0-2.89-.36c-4.33,0-8.75,1.47-11.27,4.91-6.28,8.55-4.11,20.23-7.9,29.78-3.5,8.68-13.79,18.53-4.8,27.16,7.48,7.22,23.2,10.14,32.8,6.35S79.51,57.86,79.61,48.16C79.71,39.28,76.67,32.42,72.75,24.67Z"/>
      <g>
        <path class="cls-2" d="M130.1,141c-3.42,3.73-6.09,3.58-9.62,3.58h0c-.07,0-.14-.28-.21-.3-1.27-.25-2.65-.73-4.22-1.14a15.79,15.79,0,0,0-9.28.22c-4.23,1.42-5.53,3.89-8.22,7.2a28.88,28.88,0,0,1-8.74,7.06h0c-5.33,2.9-11.57,4.44-17.12,3.85C61,160.23,52.51,151.1,44.52,143.33c-3.61-3.51-7.12-5.89-10.83-7-4.57-1.4-9.44-1-15.19,1.54-.87.38-1.79.84-2.75,1.3-3.27,1.6-6.9,3.24-10.32,1.73S.84,135.08.34,131.72C-1.55,119,4.69,106.65,11.2,96.14,18.3,84.69,27.2,74.28,35.81,64c3.51-4.17,8.69-9.53,9.19-15.28l8.44.3,3.93.14,4,.14h.78l4,.14C70,51,73.52,56.11,75.89,59.31a59.6,59.6,0,0,1,8.47,17.57c4.68,15,7.39,30.23,16.62,43.36,4.13,5.88,9,11.41,15.76,14.24A18.05,18.05,0,0,0,124.9,136c1.67-.1,3.51-.9,5.19-.66C134.18,136,132,138.9,130.1,141Z"/>
        <path class="cls-2" d="M57,57.36c-1.81,13.78-9.63,27.23-14.77,40-4.79,11.87-8.85,25.7-8.57,38.92-4.57-1.4-9.44-1-15.19,1.54-.87.38-1.79.84-2.75,1.3a68.21,68.21,0,0,1,2.43-28.4c4.75-15.75,15.07-28.65,24-42.1a170.51,170.51,0,0,0,10.61-17.9,12,12,0,0,0,.71-1.7l3.93.14A54.81,54.81,0,0,1,57,57.36Z"/>
        <path class="cls-2" d="M120.47,144.17c-1.32-.27-2.77-.67-4.43-1.11a15.87,15.87,0,0,0-9.28.26c-4.23,1.43-5.53,3.91-8.22,7.22a28.91,28.91,0,0,1-8.74,7.07h0c-.85-.72-1.66-1.45-2.43-2.17-10.57-10-17.34-23.08-21.26-36.95C60,97,56.79,71.64,61.36,49.3h.78a104.78,104.78,0,0,0,18.45,56.86,141.09,141.09,0,0,0,25.4,28.1c4.22,3.46,9.34,6.48,14.27,9.74Z"/>
      </g>
      <path class="cls-3" d="M36.17,3.62a5.15,5.15,0,0,1-.49,1.13.15.15,0,0,1-.2.06.15.15,0,0,1-.07-.19,11.82,11.82,0,0,1,.51-1.15,1.83,1.83,0,0,0-.05-1.36A3.93,3.93,0,0,0,34.44.62a3.7,3.7,0,0,0-1.7-.43A2.77,2.77,0,0,0,32.16,0a2.15,2.15,0,0,0-1.4.28,1.18,1.18,0,0,0-.3.33,1.3,1.3,0,0,0-1.08.79A6,6,0,0,0,29,4.3c0,2.05.82,4,.82,6h.05a2,2,0,0,0,1.54.58c.7,0,1.27-.06,1.59-.77.4-.88,1.42-1.27,2.18-1.76a3.6,3.6,0,0,0,1.74-3,6.92,6.92,0,0,1,.89-3A2,2,0,0,0,36.17,3.62Z"/>
      <path class="cls-3" d="M83.88,52A6.85,6.85,0,0,1,83.23,55a3.6,3.6,0,0,0,.1,3.47c.43.79,1.14,1.62,1.07,2.59-.05.77.42,1.1,1,1.43a2,2,0,0,0,1.63.23l0,0c1-1.76,2.6-3.08,3.58-4.88a6.08,6.08,0,0,0,1-2.72,1.28,1.28,0,0,0-.57-1.2,1.36,1.36,0,0,0-.11-.44,2.14,2.14,0,0,0-1.1-.91,2.4,2.4,0,0,0-.59-.13,3.58,3.58,0,0,0-1.7-.43,3.89,3.89,0,0,0-2,.63,1.88,1.88,0,0,0-.7,1.17,7.44,7.44,0,0,1-.1,1.25.15.15,0,0,1-.15.14.15.15,0,0,1-.15-.15,6.32,6.32,0,0,1,.11-1.23A2,2,0,0,0,83.88,52Z"/>
      <path class="cls-4" d="M46.74,62.14S32.36,49.84,28.88,45.78c-4.36-5.08-1.67-24.35.08-34.32.14-.8.27-1.54.4-2.2a32.33,32.33,0,0,0,4.25.56c.08.6.15,1.3.23,2.07.85,9.3,1.09,29.89,1,30.53,3.57,2.32,10,5.59,11.06,8,.92,2.08,2.07,5,2.11,7.07A7.65,7.65,0,0,1,46.74,62.14Z"/>
      <path class="cls-4" d="M66,60.09S74,78.33,76.76,77.8c0,0,6.14-4.27,11.35-15L83.4,59.66S77.06,67.91,77,67.32s-4.88-17.15-7.17-18S66,60.09,66,60.09Z"/>
      <g>
        <path class="cls-4" d="M50,80.49c-.3-1.19-6.32-31.38-6.32-31.38s16.08-4.75,26.36,0L63.43,80.75Z"/>
        <path class="cls-5" d="M49.19,65.13s12.09,1.25,15.43-1.25C64.62,63.88,60.45,73.89,49.19,65.13Z"/>
      </g>
      <g>
        <g>
          <g>
            <g>
              <path class="cls-3" d="M48.21,176.17c.54,3.2-3.14,5.26-6,4.76-1.18-.21-3.32-3-2.41-4a24.54,24.54,0,0,0,2.54-3.3c.57-.84,1.1-1.69,1.62-2.54.26-.42.6-.85.86-1.27-.41-2.83-1.21-5.64-1.21-8.47v-.73h6.55A72.5,72.5,0,0,1,46.85,170c.08.23.15.65.22.89s.16.62.23.89C47.68,173.28,48,175,48.21,176.17Z"/>
              <path class="cls-4" d="M42.18,180.93c-1.18-.21-3.32-3-2.41-4a24.54,24.54,0,0,0,2.54-3.3c.57-.84,1.1-1.69,1.62-2.54A4.28,4.28,0,0,0,47,171c.08.26.16.53.23.8.41,1.54.75,3.2.94,4.34C48.75,179.37,45.07,181.43,42.18,180.93Z"/>
              <path class="cls-5" d="M48.23,170.15a5.64,5.64,0,0,0-2.57,1.53,2.47,2.47,0,0,0-.42-2.67,1.58,1.58,0,0,0-2.23-.08,1.7,1.7,0,0,0-.42.64c-.46.94-.14,1.4.61,1.94.4.3.82.55,1.24.81a5.47,5.47,0,0,1,.76.42,5.82,5.82,0,0,0-2.24.52c-.14.07-.05.26.07.27a11.48,11.48,0,0,0,1.76-.11,4.47,4.47,0,0,1,1.75.58.19.19,0,0,0,.24-.12.21.21,0,0,0,0-.11,1.34,1.34,0,0,0-.91-.92,4,4,0,0,0,2.15-.42c.66-.28,2.07-.8,2.14-1.66S48.8,170,48.23,170.15Zm-4.79,1c-.19-.13-.59-.36-.62-.63A1.47,1.47,0,0,1,44.07,169c.81,0,1.39,1,1.39,1.66a5,5,0,0,1-.42,1.53,14.81,14.81,0,0,0-1.6-1.08Zm6.14-.31c-.27.55-1.25.9-1.78,1.12a3.62,3.62,0,0,1-2,.34,5.71,5.71,0,0,1,2-1.4c.2-.12,2-.53,1.78-.11Z"/>
              <path class="cls-5" d="M46.17,175.85c-.24-1.49-2.82-1.41-3.87-1.14a.15.15,0,0,0-.1.19.13.13,0,0,0,.1.1c.62.16,1.26.15,1.88.26a6.49,6.49,0,0,1,1.7.81.2.2,0,0,0,.27-.08A.17.17,0,0,0,46.17,175.85Z"/>
              <path class="cls-5" d="M45.32,176.73a5.18,5.18,0,0,0-1.89-.57,2.89,2.89,0,0,0-1.85.23c-.14.06,0,.29.1.25a3.35,3.35,0,0,1,2,.2,2.86,2.86,0,0,0,1.57.33.24.24,0,0,0,.18-.29A.23.23,0,0,0,45.32,176.73Z"/>
            </g>
            <path class="cls-6" d="M49.46,82s-9.78,20.49-5.79,85.7c0,0,4.22.89,5.55.45,0,0,12.07-56.68,9.14-85.12Z"/>
          </g>
          <g>
            <g>
              <path class="cls-3" d="M65.36,176.17c-.54,3.2,3.14,5.26,6,4.76,1.18-.21,3.32-3,2.41-4a25.47,25.47,0,0,1-2.55-3.3c-.57-.84-1.09-1.69-1.62-2.54-.26-.42-.8-.85-1.07-1.27a57.25,57.25,0,0,0,1-8.47v-.73H63.45a74,74,0,0,0,3.3,9.38c-.08.23-.15.65-.22.89s-.15.62-.22.89A44.44,44.44,0,0,0,65.36,176.17Z"/>
              <path class="cls-4" d="M71.4,180.93c1.18-.21,3.32-3,2.41-4a25.47,25.47,0,0,1-2.55-3.3c-.57-.84-1.09-1.69-1.62-2.54a4.28,4.28,0,0,1-3.11,0c-.08.26-.15.53-.22.8-.42,1.54-.76,3.2-1,4.34C64.82,179.37,68.5,181.43,71.4,180.93Z"/>
              <path class="cls-5" d="M63.41,170.77c.08.86,1.48,1.38,2.14,1.66a4,4,0,0,0,2.15.42,1.32,1.32,0,0,0-.9.92.19.19,0,0,0,.12.24H67a4.32,4.32,0,0,1,1.74-.58,11.56,11.56,0,0,0,1.76.11c.12,0,.22-.2.07-.27a5.74,5.74,0,0,0-2.24-.52c.25-.15.7-.38.76-.42.42-.26.85-.51,1.25-.81.74-.54,1.06-1,.61-1.94a1.59,1.59,0,0,0-2-1,1.7,1.7,0,0,0-.64.42,2.48,2.48,0,0,0-.43,2.67,5.64,5.64,0,0,0-2.57-1.53C64.77,170,63.32,169.76,63.41,170.77Zm5.12,1.36a5.33,5.33,0,0,1-.41-1.53c0-.69.57-1.71,1.39-1.66a1.48,1.48,0,0,1,1.24,1.53c0,.27-.42.5-.62.63A18.34,18.34,0,0,0,68.53,172.13Zm-2.72-1.28a5.62,5.62,0,0,1,2,1.4,3.64,3.64,0,0,1-2-.34c-.53-.22-1.51-.57-1.78-1.12S65.6,170.78,65.81,170.85Z"/>
              <path class="cls-5" d="M67.4,175.85c.25-1.49,2.83-1.41,3.87-1.14a.16.16,0,0,1,.11.19.13.13,0,0,1-.11.1c-.61.16-1.26.15-1.88.26a6.8,6.8,0,0,0-1.7.81.2.2,0,0,1-.27-.08A.22.22,0,0,1,67.4,175.85Z"/>
              <path class="cls-5" d="M68.25,176.73a5.24,5.24,0,0,1,1.89-.57,2.87,2.87,0,0,1,1.85.23c.15.06,0,.29-.1.25a3.35,3.35,0,0,0-2,.2,2.76,2.76,0,0,1-1.57.33.25.25,0,0,1-.16-.31A.3.3,0,0,1,68.25,176.73Z"/>
            </g>
            <path class="cls-6" d="M64.12,82s9.77,20.49,5.78,85.7c0,0-4.21.89-5.55.45,0,0-12.06-56.68-9.13-85.12Z"/>
          </g>
        </g>
        <g>
          <path class="cls-7" d="M48.88,83.34a25.89,25.89,0,0,0,15.31-.78l.1-3a24.79,24.79,0,0,1-7.32,1c-3.36-.2-7.91-.79-7.91-.79Z"/>
          <path class="cls-6" d="M50.64,79.13s-1.28,4.94-.09,5.54a2.56,2.56,0,0,0,1.89.33V79.52Z"/>
          <path class="cls-6" d="M62.85,78.73s.8,4.63-.21,5.49c-1.37,1.17-1.44.22-1.44.22l-.13-5.31Z"/>
          <path class="cls-8" d="M54.6,79.52c0,.59.2,4.25.2,4.25l4.25.1.4-4.25ZM58.36,83l-2.87-.17-.1-2.31h3.17Z"/>
        </g>
      </g>
      <path class="cls-9" d="M57.41,49.9c-1.54,0-3.92-.46-3.92-2l.39-5.11.35-4.47a2.77,2.77,0,0,1,5.54,0l.34,4.48.33,4.28C60.88,49.68,57.41,49.9,57.41,49.9Z"/>
      <g>
        <path class="cls-3" d="M63.4,15A30.26,30.26,0,0,1,59.54,9c-3.73,5.46-9.19,10.92-14.79,12.9a39.39,39.39,0,0,0-.25,4.47c0,8.74,6.42,13.91,13.51,13.75,6.66-.14,10.61-5,10.61-13.75a31.77,31.77,0,0,0-.82-7.46A21.86,21.86,0,0,1,63.4,15Z"/>
        <g>
          <path class="cls-3" d="M68.74,24.58S72.05,20,73,24.39c.77,3.46-2.33,6-4.24,5.36S68.74,24.58,68.74,24.58Z"/>
          <path class="cls-9" d="M68.71,25.38s2.34-2.85,2.94-1.51a5.2,5.2,0,0,1,.25,2.92s-.25-1.8-1.68-1c0,0,1,3-1.52,1.85A1.69,1.69,0,0,1,68.71,25.38Z"/>
        </g>
        <g>
          <path class="cls-3" d="M44.51,24.58S41.2,20,40.24,24.39c-.77,3.46,2.33,6,4.24,5.36S44.51,24.58,44.51,24.58Z"/>
          <path class="cls-9" d="M44.54,25.38s-2.34-2.85-2.94-1.51a5.38,5.38,0,0,0-.25,2.92s.25-1.8,1.68-1c0,0-1,3,1.52,1.85A1.67,1.67,0,0,0,44.54,25.38Z"/>
        </g>
        <path class="cls-10" d="M45.05,29.88a.71.71,0,0,1-.71.73.72.72,0,1,1,0-1.44h0A.71.71,0,0,1,45.05,29.88Z"/>
        <path class="cls-10" d="M69.41,29.5a.71.71,0,0,1-.71.73.72.72,0,0,1,0-1.44h0A.71.71,0,0,1,69.41,29.5Z"/>
        <g>
          <path class="cls-10" d="M60.58,24.1A3.07,3.07,0,1,0,63.64,21a3.07,3.07,0,0,0-3.06,3.08Z"/>
          <g>
            <path class="cls-11" d="M65.39,23.91a2.08,2.08,0,0,1-4,1.14,2.2,2.2,0,0,1,0-1.14,2.09,2.09,0,0,1,1.43-2.57,2.07,2.07,0,0,1,2.57,1.43A2,2,0,0,1,65.39,23.91Z"/>
            <path class="cls-12" d="M64.8,23.91a1.48,1.48,0,0,1-2.88.69,1.61,1.61,0,0,1,0-.69,1.48,1.48,0,0,1,2.88-.68A1.31,1.31,0,0,1,64.8,23.91Z"/>
            <path class="cls-10" d="M64.89,22.21c0,.27-.33.49-.74.49s-.74-.22-.74-.49.33-.49.74-.49S64.89,21.94,64.89,22.21Z"/>
          </g>
          <path class="cls-13" d="M63.57,20.59a3.44,3.44,0,0,1,3.59,3.29v.23a.18.18,0,0,1-.2.18.2.2,0,0,1-.15-.09C66,23.07,65.72,22,64.2,21.51,62,20.88,60.75,23.16,60.63,25a.13.13,0,0,1-.17.1.14.14,0,0,1-.1-.1C60.16,22.81,61.31,20.82,63.57,20.59Z"/>
        </g>
        <path class="cls-9" d="M56.53,29.31s1.51,2.56,3.15,0Z"/>
        <g>
          <path class="cls-10" d="M55,24.1A3.05,3.05,0,1,1,55,24Z"/>
          <g>
            <path class="cls-11" d="M53.81,23.91c0,1.4-.85,2.54-1.91,2.54S50,25.31,50,23.91a2.3,2.3,0,0,1,1.92-2.53C53,21.38,53.81,22.51,53.81,23.91Z"/>
            <path class="cls-12" d="M53.26,23.91c0,1-.61,1.8-1.36,1.8a1.63,1.63,0,0,1-1.37-1.8,1.64,1.64,0,0,1,1.37-1.8C52.65,22.11,53.26,22.92,53.26,23.91Z"/>
            <path class="cls-10" d="M53.34,22.21c0,.27-.31.49-.7.49s-.7-.22-.7-.49.31-.49.7-.49S53.34,21.94,53.34,22.21Z"/>
          </g>
          <path class="cls-13" d="M51.86,20.59a3.44,3.44,0,0,0-3.58,3.29,1.77,1.77,0,0,0,0,.23c0,.2.24.23.35.09.82-1.13,1.09-2.25,2.6-2.69,2.23-.63,3.45,1.65,3.58,3.45a.14.14,0,0,0,.18.1.13.13,0,0,0,.09-.1C55.27,22.81,54.12,20.82,51.86,20.59Z"/>
        </g>
        <path class="cls-14" d="M54.5,29c0,1.39-1.45,2.52-3.23,2.52S48.05,30.37,48.05,29s1.44-2.52,3.22-2.52S54.5,27.59,54.5,29Z"/>
        <path class="cls-14" d="M67.23,29c0,1.39-1.44,2.52-3.22,2.52S60.79,30.37,60.79,29,62.23,26.5,64,26.5,67.23,27.59,67.23,29Z"/>
        <path class="cls-15" d="M48.16,20.17s2.9-3.91,7.38-.58A9.36,9.36,0,0,0,48.16,20.17Z"/>
        <path class="cls-15" d="M60.79,19.52s3.39-3.38,7,.64A8.57,8.57,0,0,0,60.79,19.52Z"/>
        <g>
          <path class="cls-16" d="M62.1,30.09a12,12,0,0,1-1.57,3.33c-1.22,1.69-3.15,2.83-5.74-.24a16.88,16.88,0,0,1-1.73-2.53s.81.18,2,.38c1.84.32,4.54.55,6.3-.45h0C61.63,30.58,61.87,30.31,62.1,30.09Z"/>
          <path class="cls-17" d="M60.53,33.46c-1.23,1.69-3.15,2.81-5.74-.26C56,32.75,58.73,32,60.53,33.46Z"/>
          <path class="cls-10" d="M61.32,30.71c-2.58,3.58-4.89,2.08-6.29.39C56.86,31.42,59.56,31.65,61.32,30.71Z"/>
        </g>
      </g>
    </g>
  </g>
</svg>
