<svg xmlns="http://www.w3.org/2000/svg" viewBox="0 0 73.73 153.54">
  <defs>
    <style>
      .cls-1 {
        fill: #c0440c;
      }

      .cls-2 {
        fill: #393d45;
      }

      .cls-3 {
        fill: #f0a98f;
      }

      .cls-4 {
        fill: #032733;
      }

      .cls-5 {
        fill: #c2c2c2;
      }

      .cls-6 {
        fill: #d4d4d4;
      }

      .cls-7 {
        fill: #d8826c;
      }

      .cls-8 {
        fill: #8f99b6;
      }

      .cls-9 {
        fill: #eaeaea;
      }

      .cls-10 {
        fill: #fff;
      }

      .cls-11 {
        fill: #99360a;
      }

      .cls-12 {
        fill: #302725;
      }

      .cls-13 {
        fill: #f08671;
      }

      .cls-14 {
        fill: #712311;
      }

      .cls-15 {
        fill: #d5503b;
      }
    </style>
  </defs>
  <title>자산 8</title>
  <g id="레이어_2" data-name="레이어 2">
    <g id="OBJECTS">
      <g>
        <path class="cls-1" d="M22.06,30.72c1.19-2.54,1.41-9.55,2.86-13.21,1.68-4.23,5.47-5.38,9-5.43a11.82,11.82,0,0,1,2.85-.59c4.31-.44,8.84.35,11.64,3C55.37,21,54.2,31,58.83,38.6c4.22,6.92,15.29,14.13,7.09,22.27-6.87,6.81-22.26,10.84-32.17,8.64A21.26,21.26,0,0,1,17.23,51.08C16.38,43.65,18.81,37.61,22.06,30.72Z"/>
        <g>
          <g>
            <g>
              <path class="cls-2" d="M29.8,141.79c-3.14,2.6,2.17,5.31,2.17,5.31a11.36,11.36,0,0,1,4,2.45c2.8,2.78,6.53,4.49,6.52,1.51a9.85,9.85,0,0,0-1.67-5.71,13.43,13.43,0,0,0-4.48-4.26S34.35,138,29.8,141.79Z"/>
              <path class="cls-3" d="M32.33,144.93a4,4,0,0,0-1.21-3h-.21a57.55,57.55,0,0,0-7.17.19l-1.17,6.38c2.74-.79,5.13-1.46,6.57-2a8.68,8.68,0,0,1,2.83.13A8.17,8.17,0,0,0,32.33,144.93Z"/>
            </g>
            <path class="cls-4" d="M35.15,145.08c-.57-.19-1,.33-1.31.86-1.25-.38-2.57.35-3.58,1s-2.05,1.61-1.81,2.79c.2.95,1.6.68,2.18.43a3.62,3.62,0,0,0,.88-.53,7,7,0,0,0-.29,1c-.11.58-.27,1.88.52,2.1s1.32-.88,1.48-1.53a28.32,28.32,0,0,0,.52-3.34,2.31,2.31,0,0,0,.56.7c.18.15.49-.05.34-.26a2.14,2.14,0,0,1-.25-1.64c.13-.59.7-.76.91-1.26A.26.26,0,0,0,35.15,145.08Zm-3.33,3.57a5.05,5.05,0,0,1-1.07.94l-.56.28c-.8.34-1.09-.11-.89-1.34a5.92,5.92,0,0,1,1.84-1.46,13.49,13.49,0,0,1,2.14-.58v0l-.06.06c-.32.49-.64,1-.93,1.48C32.14,148.25,32,148.45,31.82,148.65Zm.62,2.94c-.21.7-.68.39-.7-.17a3.68,3.68,0,0,1,.14-1.14,7.71,7.71,0,0,1,.91-2A1.77,1.77,0,0,0,33,148,21.21,21.21,0,0,1,32.44,151.59Z"/>
            <path class="cls-4" d="M36.85,146.11c-.77-.38-1.5.54-1.76,1.17a2.48,2.48,0,0,0,.49,2.27.16.16,0,0,0,.29-.08,10.7,10.7,0,0,1,.05-1.7c.13-.64.93-.76,1-1.37A.26.26,0,0,0,36.85,146.11Z"/>
            <path class="cls-4" d="M38.08,147.34a.24.24,0,0,0-.24-.24c-.69,0-1.07,1-1.26,1.51a2.62,2.62,0,0,0,.2,2.22c.12.23.45.07.4-.16a3.36,3.36,0,0,1,.12-1.86C37.48,148.28,38,147.89,38.08,147.34Z"/>
          </g>
          <path class="cls-5" d="M27,141.32s1.08,5.89.11,7.18-23.29,3.71-24.86,1-3.87-4.81-.44-17.53,17.08-48.1,17.08-48.1l8.75,3.67s7.86,6.65-3,23.9c0,0-9.06,22.46-14.23,29.76C10.38,141.17,22.46,140.07,27,141.32Z"/>
        </g>
        <g>
          <g>
            <g>
              <path class="cls-2" d="M43.1,142c-3.14,2.61,2.17,5.31,2.17,5.31a11.27,11.27,0,0,1,3.95,2.46c2.8,2.77,6.53,4.49,6.52,1.5a9.87,9.87,0,0,0-1.67-5.71,13.33,13.33,0,0,0-4.48-4.25S47.65,138.26,43.1,142Z"/>
              <path class="cls-3" d="M45.63,145.18a4,4,0,0,0-1.22-3h-.2a57.55,57.55,0,0,0-7.17.19l-1.17,6.38c2.73-.79,5.13-1.46,6.57-2a8.7,8.7,0,0,1,2.83.13A8,8,0,0,0,45.63,145.18Z"/>
            </g>
            <path class="cls-4" d="M48.45,145.33c-.57-.18-1,.33-1.31.86-1.25-.38-2.57.35-3.59,1s-2,1.61-1.8,2.79c.2.95,1.6.68,2.18.43a3.82,3.82,0,0,0,.88-.53,7,7,0,0,0-.29,1c-.11.58-.28,1.88.52,2.1s1.31-.88,1.48-1.53a30.19,30.19,0,0,0,.52-3.34,2.31,2.31,0,0,0,.56.7c.18.15.49-.05.34-.26a2.14,2.14,0,0,1-.26-1.64c.14-.59.71-.76.92-1.26A.26.26,0,0,0,48.45,145.33Zm-3.33,3.57a5.05,5.05,0,0,1-1.07.94l-.56.28c-.8.34-1.09-.11-.89-1.34a5.92,5.92,0,0,1,1.84-1.46,13.73,13.73,0,0,1,2.14-.57h0l0,.06c-.32.49-.64,1-.93,1.48C45.44,148.5,45.29,148.7,45.12,148.9Zm.62,2.94c-.21.7-.68.39-.7-.17a3.68,3.68,0,0,1,.14-1.14,7.71,7.71,0,0,1,.91-2,1.77,1.77,0,0,0,.16-.22A22.29,22.29,0,0,1,45.74,151.84Z"/>
            <path class="cls-4" d="M50.14,146.36c-.76-.38-1.49.54-1.75,1.17a2.5,2.5,0,0,0,.48,2.27.16.16,0,0,0,.3-.08,9.64,9.64,0,0,1,0-1.7c.13-.64.92-.76,1.05-1.37A.26.26,0,0,0,50.14,146.36Z"/>
            <path class="cls-4" d="M51.38,147.59a.24.24,0,0,0-.24-.24c-.69,0-1.07,1-1.26,1.51a2.68,2.68,0,0,0,.19,2.23.23.23,0,0,0,.41-.17,3.36,3.36,0,0,1,.12-1.86C50.78,148.53,51.33,148.14,51.38,147.59Z"/>
          </g>
          <path class="cls-6" d="M41.9,140.49s2.13,5.59,1.41,7S21.08,155.41,19,153s-4.68-4-3.62-17.15S22.18,85.6,22.18,85.6l10.56,1.87s8.94,5.1,1.39,24c0,0-4.82,23.73-8.57,31.85C25.56,143.36,37.23,140.09,41.9,140.49Z"/>
        </g>
        <g>
          <path class="cls-3" d="M65.38,12.13a6.58,6.58,0,0,1,0,3.15,3.66,3.66,0,0,0,.82,3.39c.6.68,1.47,1.35,1.6,2.31.11.77.63,1,1.3,1.18a1.94,1.94,0,0,0,1.65-.11l0,0c.58-2,1.88-3.6,2.5-5.56a6,6,0,0,0,.4-2.85,1.31,1.31,0,0,0-.81-1.07,1,1,0,0,0-.2-.39,2.1,2.1,0,0,0-1.27-.68,3.92,3.92,0,0,0-.59,0,3.92,3.92,0,0,0-1.75-.07,4,4,0,0,0-1.8,1,1.82,1.82,0,0,0-.43,1.29A10.19,10.19,0,0,1,67,15a.15.15,0,0,1-.29.05,5.76,5.76,0,0,1-.16-1.23A2,2,0,0,0,65.38,12.13Z"/>
          <path class="cls-2" d="M39.85,66.91s17.27-7.72,21.76-10.63c5.61-3.65,8.49-22.89,9.64-32.95.09-.8.17-1.55.24-2.22a30,30,0,0,1-4.24-.67c-.25.55-.51,1.2-.81,1.92-3.45,8.69-9.5,28.36-9.65,29-4.08,1.21-11.17,2.53-12.85,4.51-1.48,1.73-3.42,4.24-4,6.18A7.8,7.8,0,0,0,39.85,66.91Z"/>
        </g>
        <g>
          <path class="cls-3" d="M19.2,4.33a6.11,6.11,0,0,1-.68,1c-.11.13-.32,0-.24-.18a7.3,7.3,0,0,1,.7-1,1.88,1.88,0,0,0,.18-1.35A4,4,0,0,0,18,1.07a3.71,3.71,0,0,0-1.6-.71,2.2,2.2,0,0,0-.54-.25,2.1,2.1,0,0,0-1.44,0,1,1,0,0,0-.35.27,1.27,1.27,0,0,0-1.2.59A6,6,0,0,0,12,3.75c-.32,2,.12,4.07-.23,6.08l0,.05a1.91,1.91,0,0,0,1.43.83c.68.14,1.25.16,1.69-.48.54-.8,1.62-1,2.45-1.36A3.59,3.59,0,0,0,19.58,6.2,6.89,6.89,0,0,1,21,3.37,2,2,0,0,0,19.2,4.33Z"/>
          <path class="cls-2" d="M19.5,63.79S7.47,49.2,4.74,44.6c-3.41-5.77,2.55-24.28,6-33.8.28-.76.53-1.46.77-2.1A29.53,29.53,0,0,0,15.61,10c0,.6-.08,1.3-.14,2.08-.76,9.31-4.08,29.63-4.23,30.25,3.12,2.9,8.89,7.24,9.51,9.76.56,2.2,1.18,5.31.86,7.32A7.72,7.72,0,0,1,19.5,63.79Z"/>
        </g>
        <g>
          <path class="cls-2" d="M32.56,85.36c.51-1.12,11.92-29.76,11.92-29.76s-15-7.59-26-4.78l.76,32.36Z"/>
          <path class="cls-4" d="M35.32,67.83s-12.14-1-15-4C20.35,63.81,22.65,74.42,35.32,67.83Z"/>
        </g>
        <path class="cls-7" d="M35,53c0,2.63-3.5,2.22-3.5,2.22C30,54.93,27.76,54,28,52.53l2.47-9.3A2.77,2.77,0,0,1,33.73,41h0A2.77,2.77,0,0,1,36,44.24Z"/>
        <g>
          <path class="cls-8" d="M32.74,87.47a22.1,22.1,0,0,1-14.47-3l.5-3.6a19.14,19.14,0,0,0,6.52,2.34c3.34.41,7.93.65,7.93.65Z"/>
          <path class="cls-6" d="M31.77,83s.36,5.1-.91,5.47a2.57,2.57,0,0,1-1.92,0l1-5.39Z"/>
          <path class="cls-6" d="M19.82,80.4s-1.63,4.42-.79,5.45c1.13,1.39,1.38.48,1.38.48l1.1-5.22Z"/>
          <path class="cls-9" d="M23,81.89l-.38,4.26,4.21.68s.85-3.57,1-4.16Zm.71,1,3.12.58-.52,2.27-2.86-.34Z"/>
        </g>
        <path class="cls-3" d="M42.45,24a20,20,0,0,1-4.26-7.29l-.1.07a28.22,28.22,0,0,1-7,3.63,20.68,20.68,0,0,1-4.71,1.36,31.58,31.58,0,0,0-2.63,5.34C20.47,35.64,22,43.37,28.44,46c6.83,2.81,15,.2,18.28-8.29a34.52,34.52,0,0,0,2-7.27C46.59,28.36,44.38,26.32,42.45,24Z"/>
        <g>
          <g>
            <path class="cls-3" d="M47.28,36.23s4.91-3.15,4.22,1.43c-.55,3.65-4.52,5-6.13,3.62S47.28,36.23,47.28,36.23Z"/>
            <path class="cls-7" d="M46.94,37s3.35-1.89,3.43-.36a5.47,5.47,0,0,1-.86,2.93S50,37.73,48.25,38c0,0-.12,3.27-2.17,1.22A1.77,1.77,0,0,1,46.94,37Z"/>
          </g>
          <path class="cls-10" d="M44.72,41a1,1,0,0,0,.53,1.32A1,1,0,1,0,44.72,41Z"/>
        </g>
        <path class="cls-7" d="M34.44,35.37s-2.43,1.92-3-1.23Z"/>
        <path class="cls-11" d="M45.8,30.74S44.34,26.65,41,26.27c-.78-.09-1.09.13-2.16,1.14A9.78,9.78,0,0,1,45.8,30.74Z"/>
        <path class="cls-11" d="M26.61,23.33s3.38-2.23,5.58-.47c.51.41.55.77.57,2.2A6.82,6.82,0,0,0,26.61,23.33Z"/>
        <path class="cls-12" d="M37.31,31.86a3.18,3.18,0,0,1,2.75-2.26c3.43-.37,3.68,3.66,4.39,4.57,0,0-.83.36-1.19,0C43.26,34.16,42.11,27.85,37.31,31.86Z"/>
        <path class="cls-12" d="M32.05,29.41a2.72,2.72,0,0,0-.64-3.19c-2.36-2.42-5.1,0-6.22.14,0,0,.4.76.91.75C26.1,27.11,31,23.78,32.05,29.41Z"/>
        <path class="cls-13" d="M35.93,36.77c-.52,1.35.46,3,2.19,3.65s3.55.12,4.07-1.24-.45-3-2.19-3.65S36.45,35.42,35.93,36.77Z"/>
        <path class="cls-13" d="M23.56,32c-.52,1.35.46,3,2.19,3.66s3.55.11,4.07-1.24-.46-3-2.18-3.66S24.08,30.64,23.56,32Z"/>
        <g>
          <path class="cls-14" d="M28.22,35.06a12.2,12.2,0,0,0,.66,3.6c.74,2,2.31,3.54,5.61,1.24a15.76,15.76,0,0,0,2.33-2,17.41,17.41,0,0,1-2-.08c-1.85-.17-4.49-.72-6-2h0C28.54,35.7,28.39,35.34,28.22,35.06Z"/>
          <path class="cls-15" d="M28.88,38.66c.75,2,2.31,3.53,5.61,1.24C33.48,39.16,31,37.67,28.88,38.66Z"/>
          <path class="cls-10" d="M28.83,35.8c1.56,4.12,4.18,3.28,6,2C33,37.65,30.28,37.17,28.83,35.8Z"/>
        </g>
      </g>
    </g>
  </g>
</svg>
