<svg xmlns="http://www.w3.org/2000/svg" viewBox="0 0 156.74 306.98">
  <defs>
    <style>
      .cls-1 {
        fill: #0c101a;
      }

      .cls-2 {
        fill: #131621;
      }

      .cls-3 {
        fill: #2d354f;
      }

      .cls-4 {
        fill: #0a0c12;
      }

      .cls-5, .cls-8, .cls-9 {
        fill: #1a1f2e;
      }

      .cls-13, .cls-6 {
        fill: #fff;
      }

      .cls-7 {
        fill: #3f4c70;
      }

      .cls-12, .cls-8 {
        fill-rule: evenodd;
      }

      .cls-9 {
        font-size: 3.09px;
      }

      .cls-13, .cls-9 {
        font-family: OpenSans-Semibold, OpenSans Semibold;
        font-weight: 600;
      }

      .cls-10 {
        fill: none;
        stroke: #dce0ed;
        stroke-miterlimit: 10;
        stroke-width: 0.23px;
      }

      .cls-11 {
        fill: #454b60;
      }

      .cls-12 {
        fill: #ff5a76;
      }

      .cls-13 {
        font-size: 5.66px;
      }
    </style>
  </defs>
  <title>자산 3</title>
  <g id="레이어_2" data-name="레이어 2">
    <g id="OBJECTS">
      <g>
        <g>
          <path class="cls-1" d="M156.74,99.55a.78.78,0,0,1-.8.77H152.8a.78.78,0,0,1-.8-.77V68.45a.79.79,0,0,1,.8-.77h3.14a.79.79,0,0,1,.8.77Z"/>
          <path class="cls-1" d="M4.74,49.91a.79.79,0,0,1-.8.77H.8a.79.79,0,0,1-.8-.77V41a.79.79,0,0,1,.8-.77H3.94a.79.79,0,0,1,.8.77Z"/>
          <path class="cls-1" d="M4.74,76.52a.78.78,0,0,1-.8.77H.8a.78.78,0,0,1-.8-.77V58.05a.79.79,0,0,1,.8-.77H3.94a.79.79,0,0,1,.8.77Z"/>
          <path class="cls-1" d="M4.74,101.16a.79.79,0,0,1-.8.77H.8a.79.79,0,0,1-.8-.77V82.68a.78.78,0,0,1,.8-.76H3.94a.78.78,0,0,1,.8.76Z"/>
          <path class="cls-2" d="M155.56,289.34c0,9.7-8.27,17.64-18.37,17.64H19.55C9.45,307,1.19,299,1.19,289.34V26.57c0-9.7,8.26-17.64,18.36-17.64H137.19c10.1,0,18.37,7.94,18.37,17.64Z"/>
          <g>
            <path class="cls-3" d="M87,303.15a1.42,1.42,0,0,1-1.44,1.39H71.18a1.42,1.42,0,0,1-1.44-1.39h0a1.42,1.42,0,0,1,1.44-1.38H85.56A1.42,1.42,0,0,1,87,303.15Z"/>
            <path class="cls-4" d="M87,302.94a1.41,1.41,0,0,1-1.44,1.38H71.18a1.41,1.41,0,0,1-1.44-1.38h0a1.42,1.42,0,0,1,1.44-1.38H85.56A1.42,1.42,0,0,1,87,302.94Z"/>
            <g>
              <g>
                <g>
                  <path class="cls-3" d="M95.53,302.48a.57.57,0,1,0,0,1.14.57.57,0,1,0,0-1.14Z"/>
                  <path class="cls-3" d="M101.28,302.48a.57.57,0,1,0,0,1.14.57.57,0,1,0,0-1.14Z"/>
                  <path class="cls-3" d="M107,302.48a.57.57,0,1,0,0,1.14.57.57,0,1,0,0-1.14Z"/>
                  <path class="cls-3" d="M112.79,302.48a.57.57,0,1,0,0,1.14.57.57,0,1,0,0-1.14Z"/>
                  <path class="cls-3" d="M118.54,302.48a.57.57,0,1,0,0,1.14.57.57,0,1,0,0-1.14Z"/>
                  <path class="cls-3" d="M124.29,302.48a.57.57,0,1,0,0,1.14.57.57,0,1,0,0-1.14Z"/>
                </g>
                <path class="cls-4" d="M95.53,302.38a.58.58,0,0,0-.59.56.59.59,0,0,0,.59.57.58.58,0,0,0,.59-.57A.57.57,0,0,0,95.53,302.38Z"/>
                <path class="cls-4" d="M101.28,302.38a.58.58,0,0,0-.59.56.59.59,0,0,0,.59.57.58.58,0,0,0,.59-.57A.57.57,0,0,0,101.28,302.38Z"/>
                <path class="cls-4" d="M107,302.38a.57.57,0,0,0-.59.56.58.58,0,0,0,.59.57.59.59,0,0,0,.59-.57A.58.58,0,0,0,107,302.38Z"/>
                <path class="cls-4" d="M112.79,302.38a.57.57,0,0,0-.59.56.58.58,0,0,0,.59.57.59.59,0,0,0,.59-.57A.58.58,0,0,0,112.79,302.38Z"/>
                <path class="cls-4" d="M118.54,302.38a.57.57,0,0,0-.59.56.58.58,0,0,0,.59.57.59.59,0,0,0,.59-.57A.58.58,0,0,0,118.54,302.38Z"/>
                <path class="cls-4" d="M124.29,302.38a.58.58,0,0,0-.59.56.59.59,0,0,0,.59.57.58.58,0,0,0,.59-.57A.57.57,0,0,0,124.29,302.38Z"/>
              </g>
              <g>
                <g>
                  <path class="cls-3" d="M32.45,302.48a.57.57,0,1,0,0,1.14.57.57,0,1,0,0-1.14Z"/>
                  <path class="cls-3" d="M38.2,302.48a.57.57,0,1,0,0,1.14.57.57,0,1,0,0-1.14Z"/>
                  <path class="cls-3" d="M44,302.48a.57.57,0,1,0,0,1.14.57.57,0,1,0,0-1.14Z"/>
                  <path class="cls-3" d="M49.71,302.48a.57.57,0,1,0,0,1.14.57.57,0,1,0,0-1.14Z"/>
                  <path class="cls-3" d="M55.46,302.48a.57.57,0,1,0,0,1.14.57.57,0,1,0,0-1.14Z"/>
                  <path class="cls-3" d="M61.21,302.48a.57.57,0,1,0,0,1.14.57.57,0,1,0,0-1.14Z"/>
                </g>
                <path class="cls-4" d="M32.45,302.38a.58.58,0,0,0-.59.56.59.59,0,0,0,.59.57.58.58,0,0,0,.59-.57A.57.57,0,0,0,32.45,302.38Z"/>
                <path class="cls-4" d="M38.2,302.38a.58.58,0,0,0-.59.56.59.59,0,0,0,.59.57.58.58,0,0,0,.59-.57A.57.57,0,0,0,38.2,302.38Z"/>
                <path class="cls-4" d="M44,302.38a.58.58,0,0,0-.59.56.59.59,0,0,0,.59.57.58.58,0,0,0,.59-.57A.57.57,0,0,0,44,302.38Z"/>
                <path class="cls-4" d="M49.71,302.38a.57.57,0,0,0-.59.56.58.58,0,0,0,.59.57.59.59,0,0,0,.59-.57A.58.58,0,0,0,49.71,302.38Z"/>
                <path class="cls-4" d="M55.46,302.38a.57.57,0,0,0-.59.56.58.58,0,0,0,.59.57.59.59,0,0,0,.59-.57A.58.58,0,0,0,55.46,302.38Z"/>
                <path class="cls-4" d="M61.21,302.38a.57.57,0,0,0-.59.56.58.58,0,0,0,.59.57.59.59,0,0,0,.59-.57A.58.58,0,0,0,61.21,302.38Z"/>
              </g>
            </g>
          </g>
          <path class="cls-3" d="M155.56,281.32c0,9.71-8.27,17.64-18.37,17.64H19.55C9.45,299,1.19,291,1.19,281.32V18.55C1.19,8.85,9.45.91,19.55.91H137.19c10.1,0,18.37,7.94,18.37,17.64Z"/>
          <path class="cls-5" d="M155.56,280.41c0,9.7-8.27,17.64-18.37,17.64H19.55c-10.1,0-18.36-7.94-18.36-17.64V17.64C1.19,7.94,9.45,0,19.55,0H137.19c10.1,0,18.37,7.94,18.37,17.64Z"/>
          <path class="cls-6" d="M137.19,6.9H119.1a3.44,3.44,0,0,0-3.51,3.37v2.19a8.11,8.11,0,0,1-8.27,7.94H49.42a8.11,8.11,0,0,1-8.27-7.94V10.27A3.44,3.44,0,0,0,37.64,6.9H19.55A11,11,0,0,0,8.37,17.64V280.41a11,11,0,0,0,11.18,10.74H137.19a11,11,0,0,0,11.18-10.74V17.64A11,11,0,0,0,137.19,6.9Z"/>
          <g>
            <path class="cls-7" d="M87.19,11.94a1.54,1.54,0,0,1-1.56,1.51H62.84a1.54,1.54,0,0,1-1.56-1.51h0a1.53,1.53,0,0,1,1.56-1.5H85.63a1.53,1.53,0,0,1,1.56,1.5Z"/>
            <path class="cls-7" d="M95.47,11.94a1.57,1.57,0,1,1-1.57-1.5A1.55,1.55,0,0,1,95.47,11.94Z"/>
          </g>
          <g>
            <path class="cls-1" d="M87.19,11.8a1.53,1.53,0,0,1-1.56,1.5H62.84a1.53,1.53,0,0,1-1.56-1.5h0a1.53,1.53,0,0,1,1.56-1.5H85.63a1.53,1.53,0,0,1,1.56,1.5Z"/>
            <path class="cls-1" d="M95.47,11.8a1.57,1.57,0,1,1-1.57-1.5A1.54,1.54,0,0,1,95.47,11.8Z"/>
          </g>
        </g>
        <g>
          <path id="Battery_Icon_-_100_" data-name="Battery Icon - 100%" class="cls-8" d="M140.67,14.11a.55.55,0,0,1-.54.62V13.48A.56.56,0,0,1,140.67,14.11ZM140,13v2.32h0a.54.54,0,0,1-.54.53h-6.95a.53.53,0,0,1-.53-.53h0V13a.53.53,0,0,1,.53-.53h6.95A.53.53,0,0,1,140,13Zm-7.49-.36a.36.36,0,0,0-.35.36v2.32a.35.35,0,0,0,.35.35h6.95a.36.36,0,0,0,.36-.35V13a.36.36,0,0,0-.36-.36Zm-.18.36v2.32a.18.18,0,0,0,.18.17h4.25a.18.18,0,0,0,.17-.17V13a.18.18,0,0,0-.17-.18h-4.25A.18.18,0,0,0,132.29,13Z"/>
          <path id="Wi-Fi_Icon" data-name="Wi-Fi Icon" class="cls-5" d="M127.9,12.42a3.29,3.29,0,0,1,2.13.83l-.28.31a2.9,2.9,0,0,0-3.71,0l-.28-.31A3.31,3.31,0,0,1,127.9,12.42Zm0,1.1a2.23,2.23,0,0,1,1.41.53l-.3.34a1.75,1.75,0,0,0-2.23,0l-.3-.34A2.23,2.23,0,0,1,127.9,13.52Zm0,1.09a1.14,1.14,0,0,1,.68.25l-.68.76-.69-.76A1.15,1.15,0,0,1,127.9,14.61Z"/>
          <g>
            <rect class="cls-5" x="122.48" y="12.42" width="0.58" height="3.21"/>
            <rect class="cls-5" x="121.38" y="13.23" width="0.58" height="2.4"/>
            <rect class="cls-5" x="120.27" y="14.04" width="0.58" height="1.59"/>
            <rect class="cls-5" x="119.17" y="14.85" width="0.58" height="0.78"/>
          </g>
          <text class="cls-9" transform="translate(18.23 14.91)">19:21</text>
          <g>
            <path class="cls-5" d="M28.48,15.64a.1.1,0,0,1-.07,0,.12.12,0,0,1-.07-.11l0-.39A1.57,1.57,0,0,1,27.8,14a1.55,1.55,0,1,1,1.55,1.55,1.39,1.39,0,0,1-.44-.07l-.37.17Z"/>
            <path class="cls-6" d="M30.24,13.7a.09.09,0,0,0-.13,0,2.58,2.58,0,0,0-.45.35,5.32,5.32,0,0,0-.47-.36h0a.19.19,0,0,0-.26,0,4.88,4.88,0,0,0-.41.66.1.1,0,0,0,0,.09.08.08,0,0,0,.12,0,5.2,5.2,0,0,0,.44-.35c.16.13.31.25.48.37h0a.22.22,0,0,0,.28,0,4,4,0,0,0,.41-.66A.1.1,0,0,0,30.24,13.7Z"/>
          </g>
        </g>
        <g>
          <line class="cls-10" x1="7.75" y1="271.01" x2="142.6" y2="271.01"/>
          <path class="cls-11" d="M52.57,285.53l-1.65-1.64a3.29,3.29,0,0,0,.85-2.21A3.32,3.32,0,1,0,48.45,285a3.29,3.29,0,0,0,2.23-.87l1.64,1.65Zm-4.12-.88a3,3,0,1,1,3-3A3,3,0,0,1,48.45,284.65Z"/>
          <g>
            <path class="cls-11" d="M127.59,278.75a1.75,1.75,0,1,1-1.75,1.74,1.74,1.74,0,0,1,1.75-1.74m0-.35a2.1,2.1,0,1,0,2.09,2.09,2.1,2.1,0,0,0-2.09-2.09Z"/>
            <path class="cls-11" d="M131.26,285.74a.18.18,0,0,1-.18-.17v-.49a1.44,1.44,0,0,0-1.44-1.44h-4.1a1.44,1.44,0,0,0-1.45,1.44v.48a.17.17,0,0,1-.17.18.18.18,0,0,1-.18-.17v-.49a1.8,1.8,0,0,1,1.8-1.79h4.1a1.79,1.79,0,0,1,1.79,1.79v.49A.18.18,0,0,1,131.26,285.74Z"/>
          </g>
          <path class="cls-11" d="M103.13,279.1a1.68,1.68,0,0,1,.89.26,2.08,2.08,0,0,1,.67,2.73,14.44,14.44,0,0,1-3.18,2.93.1.1,0,0,1-.06,0,.07.07,0,0,1-.06,0,14.31,14.31,0,0,1-3.19-2.93,2.09,2.09,0,0,1,.67-2.73,1.68,1.68,0,0,1,.89-.26,1.77,1.77,0,0,1,1.41.73l.28.38.28-.38a1.75,1.75,0,0,1,1.4-.73m0-.35a2.09,2.09,0,0,0-1.68.87,2.12,2.12,0,0,0-1.69-.87,2,2,0,0,0-1.08.31,2.44,2.44,0,0,0-.79,3.19,15.54,15.54,0,0,0,3.29,3.05.44.44,0,0,0,.27.09.46.46,0,0,0,.27-.09,15.26,15.26,0,0,0,3.28-3.05,2.44,2.44,0,0,0-.79-3.19,2,2,0,0,0-1.08-.31Z"/>
          <path class="cls-12" d="M102.17,287.8a.72.72,0,1,1-.72-.72A.72.72,0,0,1,102.17,287.8Z"/>
          <path class="cls-11" d="M76.74,286.22h-3.1A2.64,2.64,0,0,1,71,283.58v-3.1a2.64,2.64,0,0,1,2.64-2.64h3.1a2.65,2.65,0,0,1,2.65,2.64v3.1A2.65,2.65,0,0,1,76.74,286.22Zm-3.1-8a2.28,2.28,0,0,0-2.29,2.29v3.1a2.28,2.28,0,0,0,2.29,2.29h3.1a2.29,2.29,0,0,0,2.3-2.29v-3.1a2.29,2.29,0,0,0-2.3-2.29Z"/>
          <polygon class="cls-11" points="77.11 281.86 75.37 281.86 75.37 280.11 75.02 280.11 75.02 281.86 73.27 281.86 73.27 282.21 75.02 282.21 75.02 283.95 75.37 283.95 75.37 282.21 77.11 282.21 77.11 281.86"/>
          <path class="cls-11" d="M22.76,278.49a.49.49,0,0,0-.35.14l-3.23,3.25a.88.88,0,0,0-.26.63v2.61a.53.53,0,0,0,.53.53h2.08a.52.52,0,0,0,.53-.53v-1.57a.7.7,0,1,1,1.4,0v1.57a.53.53,0,0,0,.53.53h2.09a.53.53,0,0,0,.53-.53v-2.61a.92.92,0,0,0-.26-.63l-3.24-3.25a.47.47,0,0,0-.35-.14"/>
          <g>
            <path class="cls-12" d="M120.71,259.3H82.18a2.79,2.79,0,0,0-2.79,2.79v7a2.76,2.76,0,0,0,2.62,2.8H97.42c1.76,0,2.92,2.77,3.94,2.77s2.37-2.77,4-2.77h15.4a2.8,2.8,0,0,0,2.8-2.8v-7A2.79,2.79,0,0,0,120.71,259.3Z"/>
            <path class="cls-6" d="M100,263.37a1.22,1.22,0,0,1,.66.2,1.57,1.57,0,0,1,.49,2,10.67,10.67,0,0,1-2.35,2.19l0,0,0,0a10.67,10.67,0,0,1-2.35-2.19,1.57,1.57,0,0,1,.49-2,1.22,1.22,0,0,1,.66-.2,1.27,1.27,0,0,1,1,.38l.21.28.21-.28a1.23,1.23,0,0,1,1-.38"/>
            <g>
              <path class="cls-6" d="M112,263.21a1.36,1.36,0,1,0,1.36,1.36,1.36,1.36,0,0,0-1.36-1.36Z"/>
              <path class="cls-6" d="M109.59,268a.12.12,0,0,1-.12-.12v-.31a1,1,0,0,1,1-1.17h3a1,1,0,0,1,1,1.17v.31a.12.12,0,0,1-.11.12Z"/>
            </g>
            <path class="cls-6" d="M87.93,266.73A2.48,2.48,0,1,0,85.78,268a2.46,2.46,0,0,0,1.26-.35l1.08.25Z"/>
            <text class="cls-13" transform="translate(90.06 267.81)">1</text>
            <text class="cls-13" transform="translate(103.21 267.81)">1</text>
            <text class="cls-13" transform="translate(116.28 267.81)">1</text>
          </g>
        </g>
      </g>
    </g>
  </g>
</svg>
