<svg xmlns="http://www.w3.org/2000/svg" viewBox="0 0 131.27 369.81">
  <defs>
    <style>
      .cls-1 {
        fill: #fb0;
      }

      .cls-2 {
        fill: #c0440c;
      }

      .cls-3 {
        fill: #393d45;
      }

      .cls-4 {
        fill: #032733;
      }

      .cls-5 {
        fill: #d8826c;
      }

      .cls-6 {
        fill: #f0a98f;
      }

      .cls-7 {
        fill: #d4d4d4;
      }

      .cls-8 {
        fill: #8f99b6;
      }

      .cls-9 {
        fill: #eaeaea;
      }

      .cls-10 {
        fill: #fff;
      }

      .cls-11 {
        fill: #7f5242;
      }

      .cls-12 {
        fill: #400404;
      }

      .cls-13 {
        fill: #390a0a;
      }

      .cls-14 {
        fill: #f08671;
      }

      .cls-15 {
        fill: #99360a;
      }

      .cls-16 {
        fill: #d5503b;
      }
    </style>
  </defs>
  <title>자산 1</title>
  <g id="레이어_2" data-name="레이어 2">
    <g id="OBJECTS">
      <g>
        <path class="cls-1" d="M116.43,9,17.49.06A16,16,0,0,0,0,16.31L5.63,250.52A15.85,15.85,0,0,0,21.53,266h93.13c8.8,0,16.61-7,16.61-15.8V24.86A16.24,16.24,0,0,0,116.43,9Z"/>
        <g>
          <path class="cls-2" d="M97.57,68.08C94.77,62.56,93,46.63,89.48,38.6c-4-9.25-11.54-11-18.32-10.28a19.59,19.59,0,0,0-5.58-.69c-8.36,0-16.9,2.85-21.76,9.47C31.69,53.61,35.89,76.16,28.49,94.58,21.75,111.33,1.88,130.35,19.23,147c14.52,13.93,44.86,19.57,63.46,12.25,18.39-7.24,27.93-27.14,28.13-45.86C111,96.26,105.14,83,97.57,68.08Z"/>
          <g>
            <path class="cls-3" d="M53.63,175.8c-.58-2.29-12.21-60.57-12.21-60.57s31-9.16,50.89,0L79.59,176.3Z"/>
            <path class="cls-4" d="M52.1,146.16s23.34,2.42,29.78-2.41C81.88,143.75,73.83,163.06,52.1,146.16Z"/>
          </g>
          <g>
            <path class="cls-5" d="M113.66,211c-.91-1.77-1.77-3.52-2.58-5.32-.38-2.05-.75-4.11-1.31-6.12-.62-2.26-2-6-5-5.31-.37.08-.81.35-.82.79a12.89,12.89,0,0,0,.86,4.95c0,.28,0,.56,0,.82a20.56,20.56,0,0,1,0,4c-.6,3.63-2.23,8.17-.8,11.77a.44.44,0,0,0,.84-.1c.45-2.14.65-4.3,1.15-6.43.23.82.52,1.65.85,2.52a28.45,28.45,0,0,1,1.89,9.71c0,.35.44.37.63.18a4.06,4.06,0,0,0,1-1.57,4.67,4.67,0,0,0,.45-.44c-.1.31-.19.61-.28.91a.53.53,0,0,0,.9.54C114,219.2,115.45,214.51,113.66,211Zm-1.59,4.09v0a22.76,22.76,0,0,0-.89-3.64c0-.06,0-.12-.05-.18A7,7,0,0,1,112.07,215.13Z"/>
            <path class="cls-3" d="M91.75,114.86s17.56,19.6,20.23,90.21l-8.39.38S86.41,140.19,86.41,139,87.55,117.4,91.75,114.86Z"/>
          </g>
          <g>
            <g>
              <g>
                <g>
                  <path class="cls-6" d="M50.21,360.47c1,6.18-6.06,10.17-11.65,9.19-2.27-.4-6.4-5.86-4.65-7.78a51.64,51.64,0,0,0,4.91-6.37c1.1-1.62,2.12-3.27,3.13-4.91.5-.82,1.15-1.64,1.66-2.45-.8-5.46-1.34-10.89-2.34-16.36V332H53.91c-1.63,5-3.72,11.2-6.38,17.29.15.45.29.86.43,1.33s.29,1,.43,1.51C49.19,355.11,49.84,358.28,50.21,360.47Z"/>
                  <path class="cls-3" d="M38.56,369.66c-2.27-.4-6.4-5.86-4.65-7.78a51.64,51.64,0,0,0,4.91-6.37c1.1-1.62,2.12-3.27,3.13-4.91a8.38,8.38,0,0,0,6,0c.15.5.29,1,.43,1.53.8,3,1.45,6.18,1.82,8.37C51.25,366.65,44.15,370.64,38.56,369.66Z"/>
                  <path class="cls-4" d="M50.26,348.85a10.83,10.83,0,0,0-5,3c.51-1.84.76-3.44-.82-5.15-1.73-1.87-4.13-.92-5.11,1.09-.89,1.8-.27,2.69,1.17,3.74.77.57,1.6,1.05,2.4,1.56.13.08,1,.52,1.47.81a11.08,11.08,0,0,0-4.32,1c-.28.13-.1.49.14.52a24.1,24.1,0,0,0,3.39-.2c1.35-.06,2.19.66,3.37,1.12.27.11.54-.21.46-.46a2.59,2.59,0,0,0-1.74-1.78,7.63,7.63,0,0,0,4.15-.8c1.26-.54,4-1.55,4.13-3.21C54.15,348.11,51.35,348.6,50.26,348.85ZM41,350.7c-.37-.26-1.14-.7-1.19-1.21a2.88,2.88,0,0,1,2.4-3c1.58-.09,2.69,1.87,2.68,3.2a9.59,9.59,0,0,1-.8,3A35.51,35.51,0,0,0,41,350.7Zm11.86-.61c-.52,1.07-2.41,1.73-3.43,2.16a6.94,6.94,0,0,1-4,.67,10.9,10.9,0,0,1,3.87-2.72C49.76,350.07,53.24,349.28,52.86,350.09Z"/>
                  <path class="cls-4" d="M46.27,359.85c-.47-2.86-5.45-2.71-7.46-2.18a.29.29,0,0,0,0,.55c1.18.31,2.42.29,3.63.5s2.12,1,3.28,1.56A.38.38,0,0,0,46.27,359.85Z"/>
                  <path class="cls-4" d="M44.63,361.57c-.9-.7-2.54-.88-3.65-1.12a5.5,5.5,0,0,0-3.57.45c-.28.12-.08.56.2.48a6.55,6.55,0,0,1,3.88.4c.94.31,2,.93,3,.62A.46.46,0,0,0,44.63,361.57Z"/>
                </g>
                <path class="cls-7" d="M52.62,178.78S33.74,218.33,41.45,344.2c0,0,8.14,1.71,10.7.85,0,0,23.29-109.38,17.64-164.29Z"/>
              </g>
              <g>
                <g>
                  <path class="cls-6" d="M83.31,360.47c-1,6.18,6.06,10.17,11.65,9.19,2.28-.4,6.41-5.86,4.65-7.78a52.63,52.63,0,0,1-4.91-6.37c-1.09-1.62-2.11-3.27-3.12-4.91-.51-.82-.65-1.64-1.16-2.45.8-5.46,1.85-10.89,2.85-16.36V332H79.62c1.62,5,3.71,11.2,6.37,17.29-.14.45-.28.86-.42,1.33s-.3,1-.43,1.51C84.34,355.11,83.69,358.28,83.31,360.47Z"/>
                  <path class="cls-3" d="M95,369.66c2.28-.4,6.41-5.86,4.65-7.78a52.63,52.63,0,0,1-4.91-6.37c-1.09-1.62-2.11-3.27-3.12-4.91a8.39,8.39,0,0,1-6,0c-.15.5-.3,1-.43,1.53-.8,3-1.45,6.18-1.83,8.37C82.28,366.65,89.37,370.64,95,369.66Z"/>
                  <path class="cls-4" d="M79.54,350.05c.15,1.66,2.87,2.67,4.14,3.21a7.61,7.61,0,0,0,4.14.8,2.59,2.59,0,0,0-1.74,1.78c-.08.25.2.57.47.46,1.18-.46,2-1.18,3.37-1.12a24,24,0,0,0,3.38.2c.25,0,.43-.39.15-.52a11.12,11.12,0,0,0-4.32-1c.47-.29,1.34-.73,1.46-.81.81-.51,1.63-1,2.4-1.56,1.45-1.05,2.06-1.94,1.18-3.74-1-2-3.39-3-5.12-1.09-1.57,1.71-1.32,3.31-.82,5.15a10.84,10.84,0,0,0-5-3C82.18,348.6,79.37,348.11,79.54,350.05Zm9.89,2.63a9.59,9.59,0,0,1-.8-3c0-1.33,1.1-3.29,2.69-3.2a2.86,2.86,0,0,1,2.39,3c0,.51-.82.95-1.19,1.21S90.55,351.81,89.43,352.68Zm-5.26-2.48A10.82,10.82,0,0,1,88,352.92a6.91,6.91,0,0,1-3.94-.67c-1-.43-2.91-1.09-3.43-2.16C80.28,349.28,83.76,350.07,84.17,350.2Z"/>
                  <path class="cls-4" d="M87.25,359.85c.47-2.86,5.45-2.71,7.47-2.18a.29.29,0,0,1,0,.55c-1.19.31-2.43.29-3.63.5s-2.13,1-3.28,1.56A.39.39,0,0,1,87.25,359.85Z"/>
                  <path class="cls-4" d="M88.89,361.57c.91-.7,2.54-.88,3.66-1.12a5.47,5.47,0,0,1,3.56.45c.28.12.08.56-.2.48a6.53,6.53,0,0,0-3.87.4c-1,.31-2,.93-3,.62A.46.46,0,0,1,88.89,361.57Z"/>
                </g>
                <path class="cls-7" d="M80.91,178.78S99.78,218.33,92.07,344.2c0,0-8.13,1.71-10.7.85,0,0-23.29-109.38-17.64-164.29Z"/>
              </g>
            </g>
            <g>
              <path class="cls-8" d="M51.51,181.3s14.65,4.36,29.54-1.5l.19-5.86s-7.63,2.29-14.12,1.91-15.27-1.53-15.27-1.53Z"/>
              <path class="cls-7" d="M54.91,173.18s-2.48,9.54-.19,10.68,3.64.65,3.64.65l0-10.57Z"/>
              <path class="cls-7" d="M78.46,172.41s1.54,8.94-.4,10.6c-2.64,2.25-2.79.43-2.79.43L75,173.18Z"/>
              <path class="cls-9" d="M62.54,173.94c0,1.14.38,8.21.38,8.21l8.21.19.76-8.21Zm7.25,6.85-5.53-.35L64.07,176h6.11Z"/>
            </g>
          </g>
          <g>
            <path class="cls-5" d="M21.73,222.69a.54.54,0,0,0,.91-.54c-.09-.3-.18-.6-.28-.9a6.09,6.09,0,0,0,.44.44,4.23,4.23,0,0,0,1,1.56c.2.19.62.17.63-.17a28.46,28.46,0,0,1,1.89-9.72c.34-.87.63-1.7.86-2.51.5,2.12.7,4.28,1.15,6.42a.44.44,0,0,0,.83.1c1.44-3.59-.19-8.14-.79-11.76a19.9,19.9,0,0,1-.06-4c0-.26,0-.54,0-.82a12.88,12.88,0,0,0,.85-4.95c0-.44-.44-.71-.81-.79-3-.69-4.38,3.06-5,5.31-.56,2-.93,4.07-1.3,6.12-.82,1.8-1.67,3.55-2.58,5.32C17.66,215.27,19.13,220,21.73,222.69ZM22,212.1l-.06.18a21.73,21.73,0,0,0-.88,3.64v0A7,7,0,0,1,22,212.1Z"/>
            <path class="cls-3" d="M41.35,115.61s-17.55,19.6-20.23,90.22l8.4.38S46.7,140.94,46.7,139.79,45.54,115.52,41.35,115.61Z"/>
          </g>
          <path class="cls-5" d="M68,116.77c-3,0-7.56-.9-7.56-3.86l.76-9.86.66-8.61a5.36,5.36,0,1,1,10.71,0l.65,8.63.63,8.27C74.67,116.34,68,116.77,68,116.77Z"/>
          <g>
            <path class="cls-6" d="M79.53,49.33a58.91,58.91,0,0,1-7.45-11.48c-7.2,10.54-17.75,21.08-28.54,24.9a70.7,70.7,0,0,0-.5,8.64c0,16.87,12.4,26.84,26.08,26.54C82,97.65,89.61,88.26,89.61,71.39A62,62,0,0,0,88,57,41.91,41.91,0,0,1,79.53,49.33Z"/>
            <g>
              <path class="cls-6" d="M89.83,67.88s6.4-8.73,8.25-.35c1.48,6.68-4.5,11.59-8.19,10.35S89.83,67.88,89.83,67.88Z"/>
              <path class="cls-5" d="M89.77,69.44s4.53-5.51,5.68-2.92a10,10,0,0,1,.47,5.64s-.47-3.48-3.23-1.87c0,0,2,5.74-2.94,3.56A3.25,3.25,0,0,1,89.77,69.44Z"/>
            </g>
            <g>
              <path class="cls-6" d="M43.06,67.88s-6.39-8.73-8.24-.35C33.34,74.21,39.31,79.12,43,77.88S43.06,67.88,43.06,67.88Z"/>
              <path class="cls-5" d="M43.13,69.44s-4.53-5.51-5.69-2.92A10.15,10.15,0,0,0,37,72.16s.47-3.48,3.24-1.87c0,0-2,5.74,2.93,3.56A3.25,3.25,0,0,0,43.13,69.44Z"/>
            </g>
            <path class="cls-10" d="M44.11,78.13a1.38,1.38,0,1,1-1.38-1.38A1.38,1.38,0,0,1,44.11,78.13Z"/>
            <path class="cls-10" d="M91.12,77.4A1.38,1.38,0,1,1,89.74,76,1.37,1.37,0,0,1,91.12,77.4Z"/>
            <g>
              <g>
                <path class="cls-10" d="M74.07,67A5.92,5.92,0,1,0,80,61.06,5.93,5.93,0,0,0,74.07,67Z"/>
                <g>
                  <path class="cls-11" d="M83.37,66.61c0,2.69-1.75,4.88-3.91,4.88s-3.91-2.19-3.91-4.88,1.74-4.89,3.91-4.89S83.37,63.9,83.37,66.61Z"/>
                  <path class="cls-12" d="M82.24,66.61c0,1.91-1.25,3.47-2.78,3.47s-2.78-1.56-2.78-3.47,1.24-3.48,2.78-3.48S82.24,64.68,82.24,66.61Z"/>
                  <path class="cls-10" d="M82.41,63.32c0,.52-.64.94-1.43.94s-1.43-.42-1.43-.94.64-1,1.43-1S82.41,62.79,82.41,63.32Z"/>
                </g>
                <path class="cls-13" d="M79.85,60.19c3.91-.39,6.93,3.15,6.93,6.8a.37.37,0,0,1-.67.18c-1.6-2.2-2.11-4.35-5-5.2-4.31-1.23-6.66,3.18-6.91,6.65a.26.26,0,0,1-.52,0C73.26,64.48,75.49,60.63,79.85,60.19Z"/>
              </g>
              <path class="cls-5" d="M66.27,77s2.92,5,6.09-.1Z"/>
              <g>
                <path class="cls-10" d="M63.24,67a5.92,5.92,0,1,1-5.92-5.91A5.92,5.92,0,0,1,63.24,67Z"/>
                <g>
                  <path class="cls-11" d="M61,66.61c0,2.69-1.65,4.88-3.7,4.88s-3.69-2.19-3.69-4.88,1.65-4.89,3.69-4.89S61,63.9,61,66.61Z"/>
                  <path class="cls-12" d="M60,66.61c0,1.91-1.18,3.46-2.63,3.46s-2.63-1.55-2.63-3.46,1.18-3.48,2.63-3.48S60,64.68,60,66.61Z"/>
                  <path class="cls-10" d="M60.12,63.32c0,.52-.61.94-1.36.94s-1.35-.42-1.35-.94.6-1,1.35-1S60.12,62.79,60.12,63.32Z"/>
                </g>
                <path class="cls-13" d="M57.25,60.19c-3.91-.38-6.92,3.15-6.92,6.8a.36.36,0,0,0,.66.18c1.6-2.2,2.11-4.35,5-5.2,4.31-1.23,6.66,3.18,6.91,6.66a.26.26,0,0,0,.52,0C63.83,64.48,61.61,60.63,57.25,60.19Z"/>
              </g>
              <path class="cls-14" d="M62.34,76.38c0,2.69-2.79,4.87-6.22,4.87s-6.22-2.18-6.22-4.87,2.79-4.85,6.22-4.85S62.34,73.71,62.34,76.38Z"/>
              <path class="cls-14" d="M86.93,76.38c0,2.69-2.78,4.87-6.22,4.87s-6.22-2.18-6.22-4.87,2.79-4.85,6.22-4.85S86.93,73.71,86.93,76.38Z"/>
              <path class="cls-15" d="M50.12,59.37s5.59-7.54,14.25-1.12A18.1,18.1,0,0,0,50.12,59.37Z"/>
              <path class="cls-15" d="M74.49,58.13S81,51.6,88.08,59.35A16.54,16.54,0,0,0,74.49,58.13Z"/>
              <path class="cls-16" d="M76.32,79.74s-7.71,11.38-16.53,0C59.79,79.74,67.87,86.35,76.32,79.74Z"/>
            </g>
          </g>
        </g>
        <g>
          <path class="cls-10" d="M101.11,34.1s9.19-1.32,10.06-10.51c0,0,1.32,9.85,9.63,9.63-.44.66-9,1.1-9.41,9.63C111.39,42.85,111.61,33.44,101.11,34.1Z"/>
          <path class="cls-10" d="M113.8,49.7s4.49-.65,4.92-5.14c0,0,.64,4.81,4.7,4.71-.21.32-4.38.53-4.59,4.7C118.83,54,118.93,49.37,113.8,49.7Z"/>
          <path class="cls-10" d="M97.42,54.7a4.49,4.49,0,0,0,3.77-3.94s.49,3.69,3.61,3.61c-.16.25-3.36.41-3.53,3.61C101.27,58,101.36,54.45,97.42,54.7Z"/>
        </g>
      </g>
    </g>
  </g>
</svg>
