<svg xmlns="http://www.w3.org/2000/svg" viewBox="0 0 103.37 177.28">
  <defs>
    <style>
      .cls-1 {
        fill: #c0440c;
      }

      .cls-2 {
        fill: #393d45;
      }

      .cls-3 {
        fill: #032733;
      }

      .cls-4 {
        fill: #f0a98f;
      }

      .cls-5 {
        fill: #d4d4d4;
      }

      .cls-6 {
        fill: #8f99b6;
      }

      .cls-7 {
        fill: #eaeaea;
      }

      .cls-8 {
        fill: #d8826c;
      }

      .cls-9 {
        fill: #fff;
      }

      .cls-10 {
        fill: #7f5242;
      }

      .cls-11 {
        fill: #400404;
      }

      .cls-12 {
        fill: #390a0a;
      }

      .cls-13 {
        fill: #f08671;
      }

      .cls-14 {
        fill: #99360a;
      }

      .cls-15 {
        fill: #d5503b;
      }

      .cls-16 {
        fill: #f5ae94;
      }
    </style>
  </defs>
  <title>자산 7</title>
  <g id="레이어_2" data-name="레이어 2">
    <g id="OBJECTS">
      <g>
        <path class="cls-1" d="M67.48,21C66,18.1,65.11,9.85,63.29,5.69,61.2.89,57.31,0,53.8.36A10.14,10.14,0,0,0,50.91,0c-4.33,0-8.76,1.47-11.28,4.91-6.28,8.55-4.1,20.23-7.94,29.78C28.2,43.37,17.91,53.22,26.9,61.85,34.41,69.07,50.14,72,59.77,68.2S74.25,54.14,74.35,44.44C74.44,35.56,71.41,28.7,67.48,21Z"/>
        <g>
          <path class="cls-2" d="M44.72,76.77c-.3-1.19-6.33-31.38-6.33-31.38s16.09-4.75,26.37,0L58.17,77Z"/>
          <path class="cls-3" d="M43.93,61.41S56,62.66,59.35,60.16C59.35,60.16,55.18,70.17,43.93,61.41Z"/>
        </g>
        <g>
          <g>
            <g>
              <g>
                <path class="cls-4" d="M43,172.45c.53,3.2-3.14,5.26-6,4.76-1.18-.21-3.32-3-2.41-4a25.94,25.94,0,0,0,2.54-3.3c.57-.84,1.1-1.69,1.62-2.54.27-.42.79-.85,1.05-1.27a59.67,59.67,0,0,1-1-8.47v-.73h6.17a72.27,72.27,0,0,1-3.3,9.38c.07.23.15.65.22.89s.15.62.22.89C42.42,169.56,42.75,171.31,43,172.45Z"/>
                <path class="cls-2" d="M36.91,177.21c-1.18-.21-3.32-3-2.41-4a25.94,25.94,0,0,0,2.54-3.3c.57-.84,1.1-1.69,1.62-2.54a4.35,4.35,0,0,0,3.12,0c.08.26.15.53.22.8.42,1.54.75,3.2,1,4.34C43.48,175.65,39.81,177.71,36.91,177.21Z"/>
                <path class="cls-3" d="M43,166.43A5.49,5.49,0,0,0,40.4,168a2.46,2.46,0,0,0-.43-2.67,1.58,1.58,0,0,0-2.65.56c-.46.94-.14,1.4.61,1.94.4.3.83.55,1.24.81.07,0,.52.27.76.42a5.63,5.63,0,0,0-2.23.52c-.15.06-.06.25.07.27a12.75,12.75,0,0,0,1.75-.11,4.27,4.27,0,0,1,1.75.58.19.19,0,0,0,.24-.23,1.32,1.32,0,0,0-.9-.92,4,4,0,0,0,2.15-.42c.65-.28,2.06-.8,2.14-1.66C45,166,43.54,166.3,43,166.43Zm-4.8.95c-.19-.13-.59-.36-.61-.63a1.48,1.48,0,0,1,1.24-1.53c.82-.05,1.39,1,1.39,1.66a5,5,0,0,1-.41,1.53C39.2,168,38.34,167.5,38.17,167.38Zm6.15-.31c-.27.55-1.25.89-1.78,1.12a3.66,3.66,0,0,1-2,.34,5.54,5.54,0,0,1,2-1.4C42.71,167.06,44.52,166.65,44.32,167.07Z"/>
                <path class="cls-3" d="M40.9,172.13c-.24-1.49-2.82-1.41-3.86-1.14a.15.15,0,0,0,0,.29c.61.16,1.25.15,1.88.26a7,7,0,0,1,1.7.8A.19.19,0,0,0,40.9,172.13Z"/>
                <path class="cls-3" d="M40.06,173a5.12,5.12,0,0,0-1.9-.57,2.82,2.82,0,0,0-1.85.23c-.14.06,0,.29.11.25a3.35,3.35,0,0,1,2,.2c.5.16,1.06.48,1.58.32A.24.24,0,0,0,40.06,173Z"/>
              </g>
              <path class="cls-5" d="M44.19,78.31S34.41,98.8,38.41,164c0,0,4.21.89,5.54.45,0,0,12.07-56.68,9.14-85.12Z"/>
            </g>
            <g>
              <g>
                <path class="cls-4" d="M60.09,172.45c-.53,3.2,3.15,5.26,6,4.76,1.18-.21,3.32-3,2.41-4a25.94,25.94,0,0,1-2.54-3.3c-.57-.84-1.1-1.69-1.62-2.54-.27-.42-.12-.85-.38-1.27a43.08,43.08,0,0,1,1.69-8.47v-.73H58.18a72.27,72.27,0,0,0,3.3,9.38c-.07.23-.14.65-.22.89s-.15.62-.22.89C60.63,169.56,60.29,171.31,60.09,172.45Z"/>
                <path class="cls-2" d="M66.13,177.21c1.18-.21,3.32-3,2.41-4a25.94,25.94,0,0,1-2.54-3.3c-.57-.84-1.1-1.69-1.62-2.54a4.35,4.35,0,0,1-3.12,0c-.07.26-.15.53-.22.8-.41,1.54-.75,3.2-.95,4.34C59.56,175.65,63.24,177.71,66.13,177.21Z"/>
                <path class="cls-3" d="M58.14,167.05c.08.86,1.49,1.38,2.14,1.66a4,4,0,0,0,2.15.42,1.34,1.34,0,0,0-.9.92.19.19,0,0,0,.24.23,4.32,4.32,0,0,1,1.75-.58,12.75,12.75,0,0,0,1.75.11c.13,0,.22-.21.08-.27a5.68,5.68,0,0,0-2.24-.52c.24-.15.69-.38.76-.42.42-.26.84-.51,1.24-.81.75-.54,1.07-1,.61-1.94a1.58,1.58,0,0,0-2.65-.56,2.46,2.46,0,0,0-.43,2.67,5.49,5.49,0,0,0-2.57-1.53C59.51,166.3,58.05,166,58.14,167.05Zm5.13,1.36a4.79,4.79,0,0,1-.42-1.53c0-.7.57-1.71,1.39-1.66a1.48,1.48,0,0,1,1.24,1.53c0,.27-.42.5-.61.63A19,19,0,0,0,63.27,168.41Zm-2.73-1.28a5.66,5.66,0,0,1,2,1.4,3.69,3.69,0,0,1-2-.34c-.52-.23-1.51-.57-1.77-1.12S60.33,167.06,60.54,167.13Z"/>
                <path class="cls-3" d="M62.14,172.13c.24-1.49,2.82-1.41,3.86-1.14a.15.15,0,0,1,0,.29c-.61.16-1.25.15-1.88.26a7,7,0,0,0-1.7.8A.19.19,0,0,1,62.14,172.13Z"/>
                <path class="cls-3" d="M63,173a5,5,0,0,1,1.89-.57,2.81,2.81,0,0,1,1.85.23c.14.06,0,.29-.11.25a3.35,3.35,0,0,0-2,.2c-.5.16-1.06.48-1.58.32A.24.24,0,0,1,63,173Z"/>
              </g>
              <path class="cls-5" d="M58.85,78.31S68.63,98.8,64.63,164c0,0-4.21.89-5.54.45,0,0-12.07-56.68-9.14-85.12Z"/>
            </g>
          </g>
          <g>
            <path class="cls-6" d="M43.62,79.62a25.88,25.88,0,0,0,15.3-.78l.1-3a25,25,0,0,1-7.31,1c-3.37-.2-7.91-.79-7.91-.79Z"/>
            <path class="cls-5" d="M45.38,75.41s-1.28,4.94-.1,5.54a2.57,2.57,0,0,0,1.89.33V75.8Z"/>
            <path class="cls-5" d="M57.58,75s.8,4.63-.21,5.49c-1.36,1.17-1.44.22-1.44.22l-.13-5.31Z"/>
            <path class="cls-7" d="M49.33,75.8c0,.59.2,4.25.2,4.25l4.25.1.4-4.25Zm3.76,3.54-2.87-.18-.1-2.3h3.17Z"/>
          </g>
        </g>
        <path class="cls-8" d="M52.14,46.18c-1.53,0-3.92-.46-3.92-2l.4-5.11L49,34.61a2.77,2.77,0,0,1,2.77-2.77,2.77,2.77,0,0,1,2.78,2.77l.34,4.47.32,4.29C55.62,46,52.14,46.18,52.14,46.18Z"/>
        <g>
          <path class="cls-4" d="M58.14,11.24A30.53,30.53,0,0,1,54.28,5.3c-3.74,5.45-9.2,10.92-14.79,12.89a37,37,0,0,0-.26,4.48c0,8.74,6.42,13.91,13.51,13.75,6.66-.14,10.62-5,10.62-13.75a31.74,31.74,0,0,0-.83-7.47A21.4,21.4,0,0,1,58.14,11.24Z"/>
          <g>
            <path class="cls-4" d="M63.47,20.85s3.32-4.52,4.28-.18c.76,3.46-2.33,6-4.25,5.36S63.47,20.85,63.47,20.85Z"/>
            <path class="cls-8" d="M63.44,21.66s2.35-2.86,3-1.51a5.24,5.24,0,0,1,.24,2.92s-.24-1.8-1.67-1c0,0,1,3-1.53,1.85A1.7,1.7,0,0,1,63.44,21.66Z"/>
          </g>
          <g>
            <path class="cls-4" d="M39.24,20.85s-3.31-4.52-4.27-.18c-.77,3.46,2.33,6,4.24,5.36S39.24,20.85,39.24,20.85Z"/>
            <path class="cls-8" d="M39.28,21.66s-2.35-2.86-3-1.51a5.24,5.24,0,0,0-.24,2.92s.24-1.8,1.67-1c0,0-1,3,1.53,1.85A1.7,1.7,0,0,0,39.28,21.66Z"/>
          </g>
          <path class="cls-9" d="M39.78,26.16a.71.71,0,1,1-.71-.71A.71.71,0,0,1,39.78,26.16Z"/>
          <path class="cls-9" d="M64.14,25.78a.72.72,0,1,1-.72-.71A.72.72,0,0,1,64.14,25.78Z"/>
          <g>
            <g>
              <path class="cls-9" d="M55.31,20.38a3.07,3.07,0,1,0,3.06-3.06A3.06,3.06,0,0,0,55.31,20.38Z"/>
              <g>
                <path class="cls-10" d="M60.13,20.19a2.08,2.08,0,1,1-4.06,0,2.08,2.08,0,1,1,4.06,0Z"/>
                <path class="cls-11" d="M59.54,20.19a1.48,1.48,0,1,1-2.88,0,1.48,1.48,0,1,1,2.88,0Z"/>
                <path class="cls-9" d="M59.63,18.49c0,.27-.33.49-.74.49s-.74-.22-.74-.49.33-.49.74-.49S59.63,18.22,59.63,18.49Z"/>
              </g>
              <path class="cls-12" d="M58.3,16.87a3.44,3.44,0,0,1,3.59,3.52c0,.2-.24.23-.35.09-.83-1.13-1.09-2.25-2.6-2.69-2.23-.64-3.45,1.65-3.58,3.45a.14.14,0,0,1-.27,0C54.89,19.09,56,17.1,58.3,16.87Z"/>
            </g>
            <path class="cls-8" d="M51.26,25.59s1.52,2.56,3.16-.05Z"/>
            <g>
              <path class="cls-9" d="M49.7,20.38a3.07,3.07,0,1,1-3.07-3.06A3.06,3.06,0,0,1,49.7,20.38Z"/>
              <g>
                <path class="cls-10" d="M48.55,20.19a2.29,2.29,0,0,1-1.92,2.53,2.29,2.29,0,0,1-1.92-2.53,2.29,2.29,0,0,1,1.92-2.53A2.29,2.29,0,0,1,48.55,20.19Z"/>
                <path class="cls-11" d="M48,20.19c0,1-.61,1.8-1.36,1.8s-1.36-.8-1.36-1.8.61-1.8,1.36-1.8S48,19.2,48,20.19Z"/>
                <path class="cls-9" d="M48.08,18.49c0,.27-.32.49-.71.49s-.7-.22-.7-.49.32-.49.7-.49S48.08,18.22,48.08,18.49Z"/>
              </g>
              <path class="cls-12" d="M46.59,16.87A3.44,3.44,0,0,0,43,20.39a.19.19,0,0,0,.35.09c.83-1.13,1.09-2.25,2.61-2.69,2.23-.64,3.45,1.65,3.58,3.45a.13.13,0,0,0,.26,0C50,19.09,48.85,17.1,46.59,16.87Z"/>
            </g>
            <path class="cls-13" d="M49.23,25.26c0,1.39-1.44,2.52-3.23,2.52s-3.22-1.13-3.22-2.52,1.45-2.52,3.22-2.52S49.23,23.87,49.23,25.26Z"/>
            <path class="cls-13" d="M62,25.26c0,1.39-1.44,2.52-3.22,2.52s-3.22-1.13-3.22-2.52,1.44-2.52,3.22-2.52S62,23.87,62,25.26Z"/>
            <path class="cls-14" d="M42.9,16.45s2.89-3.91,7.38-.58A9.35,9.35,0,0,0,42.9,16.45Z"/>
            <path class="cls-14" d="M55.53,15.8s3.39-3.38,7,.63A8.56,8.56,0,0,0,55.53,15.8Z"/>
            <path class="cls-15" d="M47.76,29s4.84-5.23,8.47,1.29A6.93,6.93,0,0,0,47.76,29Z"/>
          </g>
        </g>
        <g>
          <path class="cls-16" d="M12,46.84s0-2.68-1.76-2.89a18.74,18.74,0,0,1-4.33-1.38s.69,2,1.82,2.11S1.1,45.91,0,44.53a4.18,4.18,0,0,0,3.92,3.53,13.22,13.22,0,0,1,5.93,1.83S13.18,48.1,12,46.84Z"/>
          <path class="cls-2" d="M12.39,46.25,25.06,57.08S38.68,43.32,40.32,45c.08.08,9.69,1.72-.85,9.77C35,59.6,29,65.34,25.62,65.57,19.28,66,8.54,49.62,8.54,49.62Z"/>
        </g>
        <g>
          <path class="cls-16" d="M91.39,46.84s0-2.68,1.76-2.89a18.74,18.74,0,0,0,4.33-1.38s-.69,2-1.82,2.11,6.61,1.23,7.71-.15a4.18,4.18,0,0,1-3.92,3.53,13.22,13.22,0,0,0-5.93,1.83S90.19,48.1,91.39,46.84Z"/>
          <path class="cls-2" d="M91,46.25,78.31,57.08S64.69,43.32,63.05,45c-.07.08-9.69,1.72.85,9.77,4.52,4.8,10.44,10.54,13.85,10.77,6.34.43,17.09-15.95,17.09-15.95Z"/>
        </g>
      </g>
    </g>
  </g>
</svg>
