<svg xmlns="http://www.w3.org/2000/svg" viewBox="0 0 63.73 177.26">
  <defs>
    <style>
      .cls-1 {
        fill: #c0440c;
      }

      .cls-2 {
        fill: #f0a98f;
      }

      .cls-3 {
        fill: #393d45;
      }

      .cls-4 {
        fill: #032733;
      }

      .cls-5 {
        fill: #d4d4d4;
      }

      .cls-6 {
        fill: #8f99b6;
      }

      .cls-7 {
        fill: #eaeaea;
      }

      .cls-8 {
        fill: #d8826c;
      }

      .cls-9 {
        fill: #fff;
      }

      .cls-10 {
        fill: #7f5242;
      }

      .cls-11 {
        fill: #400404;
      }

      .cls-12 {
        fill: #f08671;
      }

      .cls-13 {
        fill: #d5503b;
      }

      .cls-14 {
        fill: #302725;
      }

      .cls-15 {
        fill: #99360a;
      }

      .cls-16 {
        fill: #ab967b;
      }

      .cls-17 {
        fill: #bcc1c6;
      }

      .cls-18 {
        fill: #a9acb1;
      }

      .cls-19 {
        fill: #fb0;
      }

      .cls-20 {
        fill: #eddbc3;
      }
    </style>
  </defs>
  <title>자산 12</title>
  <g id="레이어_2" data-name="레이어 2">
    <g id="OBJECTS">
      <g>
        <path class="cls-1" d="M56.7,21.67c-3.51-6.92-1.48-18.59-10.86-21C40-.86,32,.08,28.2,5.25,21.78,14,24,26,20.08,35.72c-3.57,8.88-14.1,19-4.91,27.79C22.87,70.9,39,73.89,48.81,70S63.62,55.62,63.72,45.7C63.82,36.61,60.72,29.6,56.7,21.67Z"/>
        <g>
          <path class="cls-2" d="M48.11,172.31c-.55,3.27,3.22,5.38,6.18,4.87,1.21-.21,3.4-3.11,2.46-4.13a28.2,28.2,0,0,1-2.6-3.38c-.58-.86-1.12-1.73-1.65-2.6-.27-.43-.2-.87-.47-1.3a45.82,45.82,0,0,1,1.65-8.67v.36H46.15a71.57,71.57,0,0,0,3.39,9c-.08.24-.16.39-.23.64l-.23.77C48.66,169.49,48.31,171.14,48.11,172.31Z"/>
          <path class="cls-3" d="M54.29,177.18c1.21-.21,3.4-3.11,2.46-4.13a28.2,28.2,0,0,1-2.6-3.38c-.58-.86-1.12-1.73-1.65-2.6a4.43,4.43,0,0,1-3.19,0c-.08.27-.15.54-.23.82-.42,1.58-.77,3.27-1,4.44C47.56,175.58,51.33,177.69,54.29,177.18Z"/>
          <path class="cls-4" d="M46.12,166.78c.08.88,1.52,1.42,2.19,1.7a4.07,4.07,0,0,0,2.2.43,1.37,1.37,0,0,0-.93.94c0,.13.11.3.25.24a4.21,4.21,0,0,1,1.79-.59,13.44,13.44,0,0,0,1.79.11c.13,0,.23-.21.08-.28a5.76,5.76,0,0,0-2.29-.53c.25-.15.71-.39.77-.43.43-.27.87-.52,1.28-.82.76-.56,1.09-1,.62-2a1.62,1.62,0,0,0-2.71-.58,2.53,2.53,0,0,0-.44,2.73,5.84,5.84,0,0,0-2.63-1.57C47.51,166,46,165.75,46.12,166.78Zm5.24,1.4a5,5,0,0,1-.43-1.58c0-.7.59-1.74,1.43-1.69a1.53,1.53,0,0,1,1.27,1.57c0,.27-.44.51-.63.64A18.45,18.45,0,0,0,51.36,168.18Zm-2.79-1.32a5.74,5.74,0,0,1,2,1.44,3.66,3.66,0,0,1-2.09-.35c-.54-.23-1.54-.58-1.82-1.15S48.35,166.79,48.57,166.86Z"/>
          <path class="cls-4" d="M50.2,172c.25-1.52,2.89-1.44,4-1.16a.15.15,0,0,1,0,.29c-.63.17-1.29.16-1.92.27a6.77,6.77,0,0,0-1.74.82A.21.21,0,0,1,50.2,172Z"/>
          <path class="cls-4" d="M51.07,172.89A5.1,5.1,0,0,1,53,172.3a2.86,2.86,0,0,1,1.89.23c.15.07,0,.3-.11.26a3.44,3.44,0,0,0-2,.21c-.5.16-1.08.49-1.61.33A.24.24,0,0,1,51.07,172.89Z"/>
        </g>
        <g>
          <path class="cls-2" d="M30.84,172.31c.55,3.27-3.21,5.38-6.17,4.87-1.21-.21-3.4-3.11-2.47-4.13a27.29,27.29,0,0,0,2.61-3.38c.58-.86,1.12-1.73,1.65-2.6.27-.43.4-.87.67-1.3-.42-2.89-.45-5.77-1.45-8.67v.36H32.8a69.94,69.94,0,0,1-3.38,9c.08.24.16.39.23.64l.23.77C30.3,169.49,30.65,171.14,30.84,172.31Z"/>
          <path class="cls-3" d="M24.67,177.18c-1.21-.21-3.4-3.11-2.47-4.13a27.29,27.29,0,0,0,2.61-3.38c.58-.86,1.12-1.73,1.65-2.6a4.43,4.43,0,0,0,3.19,0c.08.27.15.54.23.82.42,1.58.77,3.27,1,4.44C31.39,175.58,27.63,177.69,24.67,177.18Z"/>
          <path class="cls-4" d="M30.87,166.14a5.84,5.84,0,0,0-2.63,1.57A2.53,2.53,0,0,0,27.8,165a1.62,1.62,0,0,0-2.71.58c-.47.95-.14,1.43.62,2,.41.3.85.55,1.28.82.06,0,.52.28.77.43a5.76,5.76,0,0,0-2.29.53c-.15.07,0,.26.08.28a13.44,13.44,0,0,0,1.79-.11,4.21,4.21,0,0,1,1.79.59c.14.06.29-.11.25-.24a1.37,1.37,0,0,0-.93-.94,4.07,4.07,0,0,0,2.2-.43c.67-.28,2.11-.82,2.19-1.7C32.93,165.75,31.45,166,30.87,166.14Zm-4.91,1c-.19-.13-.6-.37-.63-.64a1.53,1.53,0,0,1,1.27-1.57c.84,0,1.43,1,1.43,1.69a5.63,5.63,0,0,1-.43,1.58A18.45,18.45,0,0,0,26,167.12Zm6.29-.32c-.28.57-1.28.92-1.82,1.15a3.66,3.66,0,0,1-2.09.35,5.83,5.83,0,0,1,2.05-1.44C30.61,166.79,32.45,166.37,32.25,166.8Z"/>
          <path class="cls-4" d="M28.76,172c-.25-1.52-2.89-1.44-4-1.16a.15.15,0,0,0,0,.29c.63.17,1.28.16,1.92.27a6.77,6.77,0,0,1,1.74.82A.21.21,0,0,0,28.76,172Z"/>
          <path class="cls-4" d="M27.89,172.89A5.1,5.1,0,0,0,26,172.3a2.86,2.86,0,0,0-1.89.23c-.15.07,0,.3.11.26a3.44,3.44,0,0,1,2,.21c.5.16,1.08.49,1.61.33A.25.25,0,0,0,27.89,172.89Z"/>
        </g>
        <g>
          <path class="cls-3" d="M46.1,76c.31-1.21,6.49-32.15,6.49-32.15s-16.48-4.86-27,0l6.75,32.42Z"/>
          <path class="cls-4" d="M46.91,60.22s-12.38,1.28-15.8-1.28C31.11,58.94,35.38,69.19,46.91,60.22Z"/>
        </g>
        <path class="cls-5" d="M46.9,75.84s10,21,5.93,87.82c0,0-4.32.91-5.68.45,0,0-12.37-58.07-9.36-87.22Z"/>
        <path class="cls-5" d="M41.24,89.34s.23,54.32-9.09,73.41l-7-.23s-3.76-64.85,7.21-86.74l8.41.92Z"/>
        <g>
          <path class="cls-6" d="M47.49,77.18a26.58,26.58,0,0,1-15.68-.8l-.1-3.11a25.46,25.46,0,0,0,7.49,1c3.45-.2,8.11-.81,8.11-.81Z"/>
          <path class="cls-5" d="M45.69,72.87s1.31,5.06.1,5.67a2.61,2.61,0,0,1-1.94.34V73.27Z"/>
          <path class="cls-5" d="M33.18,72.46s-.82,4.74.22,5.63c1.4,1.19,1.47.22,1.47.22L35,72.87Z"/>
          <path class="cls-7" d="M36.67,73.37l.4,4.36,4.36-.1s.21-3.75.21-4.36Zm.91,1.09h3.24l-.1,2.31L37.79,77Z"/>
        </g>
        <path class="cls-8" d="M45,42.06c.45,2.65-3.11,2.88-3.11,2.88-1.57,0-4-.47-4-2l.76-9.82a2.84,2.84,0,0,1,2.84-2.84h0a2.84,2.84,0,0,1,2.84,2.84Z"/>
        <path class="cls-2" d="M33.07,9.89a21.24,21.24,0,0,0,1-2.1A33,33,0,0,0,39.83,12a42.34,42.34,0,0,0,8.82,3.76,13.9,13.9,0,0,0,3.14.57,37.77,37.77,0,0,1,.4,5.65c0,9.31-6.84,14.81-14.39,14.65-7.09-.16-11.43-7-11.43-16.28,0-.87,0-1.73.09-2.57C28.93,15.34,31.43,13,33.07,9.89Z"/>
        <path class="cls-8" d="M39.29,27s-1.61,2.73-3.35-.05Z"/>
        <path class="cls-9" d="M41,21.42a3.27,3.27,0,1,0,3.27-3.27A3.27,3.27,0,0,0,41,21.42Z"/>
        <g>
          <path class="cls-10" d="M41.94,23.22c.58,1.37,1.89,2.13,2.93,1.7s1.41-1.91.84-3.28-1.89-2.13-2.93-1.7S41.36,21.85,41.94,23.22Z"/>
          <path class="cls-11" d="M42.49,23a1.73,1.73,0,0,0,2.08,1.2,1.72,1.72,0,0,0,.59-2.32,1.73,1.73,0,0,0-2.08-1.21A1.73,1.73,0,0,0,42.49,23Z"/>
          <path class="cls-9" d="M41.7,21.35a.66.66,0,0,0,.89.2c.38-.16.6-.51.49-.78s-.51-.35-.89-.19S41.59,21.09,41.7,21.35Z"/>
        </g>
        <path class="cls-12" d="M41.46,26.61c0,1.48,1.54,2.69,3.43,2.69s3.44-1.21,3.44-2.69-1.54-2.68-3.44-2.68S41.46,25.13,41.46,26.61Z"/>
        <path class="cls-13" d="M41.74,28.59s-5.26,2.43-7.49.2C34.25,28.79,36.27,33.86,41.74,28.59Z"/>
        <path class="cls-14" d="M41,21.42a3.26,3.26,0,0,1,1.8-3.17c3.14-1.62,4.86,2.13,5.87,2.74,0,0-.65.65-1.13.43C47.5,21.42,43.77,17,41,21.42Z"/>
        <g>
          <path class="cls-9" d="M35,21.87a3.27,3.27,0,1,1-3.27-3.26A3.27,3.27,0,0,1,35,21.87Z"/>
          <g>
            <path class="cls-10" d="M29.5,23.33a2.47,2.47,0,0,0,2.67,2.19,2.46,2.46,0,0,0,1.55-3.08,2.47,2.47,0,0,0-2.66-2.2A2.48,2.48,0,0,0,29.5,23.33Z"/>
            <path class="cls-11" d="M30.11,23.2A1.77,1.77,0,0,0,32,24.76a1.75,1.75,0,0,0,1.1-2.19A1.75,1.75,0,0,0,31.21,21,1.76,1.76,0,0,0,30.11,23.2Z"/>
            <path class="cls-9" d="M29.64,21.44c.06.29.46.44.88.35s.73-.39.67-.67-.45-.44-.88-.35S29.58,21.16,29.64,21.44Z"/>
          </g>
          <path class="cls-14" d="M35,21.47a2.78,2.78,0,0,0-1.79-2.81c-3.14-1.44-4.86,1.89-5.87,2.43,0,0,.65.58,1.13.38C28.51,21.47,31.88,17.43,35,21.47Z"/>
        </g>
        <path class="cls-15" d="M46.92,16.78s-3.32-3-6.5-1.69c-.74.3-.91.66-1.38,2.09A10,10,0,0,1,46.92,16.78Z"/>
        <path class="cls-15" d="M27.42,18s1.89-3.43,4.77-2.74c.67.16.9.47,1.65,1.77A7,7,0,0,0,27.42,18Z"/>
        <path class="cls-12" d="M27.9,26.91c0,1.32,1.53,2.39,3.43,2.39s3.43-1.07,3.43-2.39-1.54-2.39-3.43-2.39S27.9,25.59,27.9,26.91Z"/>
        <g>
          <g>
            <path class="cls-2" d="M51.27,19.16s3.53-4.82,4.55-.19c.81,3.68-2.48,6.4-4.52,5.71S51.27,19.16,51.27,19.16Z"/>
            <path class="cls-8" d="M51.23,20s2.5-3,3.14-1.61a5.59,5.59,0,0,1,.26,3.11s-.26-1.92-1.79-1c0,0,1.09,3.17-1.62,2A1.79,1.79,0,0,1,51.23,20Z"/>
          </g>
          <path class="cls-9" d="M50.73,24.62a.83.83,0,1,0,1.65,0,.83.83,0,1,0-1.65,0Z"/>
        </g>
        <g>
          <path class="cls-3" d="M25.57,43.8s-6,12.78-6.84,20l1.87,4.74a2.37,2.37,0,0,0,1.59.71c1.2.17,5.76-16.46,6.07-16.84S26.87,45,25.57,43.8Z"/>
          <g>
            <g>
              <path class="cls-16" d="M20.54,48S26.61,46.14,30,58.35l-18.5.75L10,50.41S14.76,46.6,20.54,48Z"/>
              <g>
                <g>
                  <path class="cls-17" d="M11.78,57.17l16.56.37a1.4,1.4,0,0,0-.69-.83c-1.21-1-3.28-1.52-5.75-1.72-.83-.06-1.72-.11-2.62-.13s-1.74,0-2.53,0c-2.38.11-4.17.53-4.77,1.51C11.85,56.6,11.67,56.52,11.78,57.17Z"/>
                  <path class="cls-17" d="M15.7,51.76l1.72,5.56,5.18.11-1.66-5.6c-.37,0-.2.08-.3.08a2.32,2.32,0,0,1-1.83-1.08H17.25a1.05,1.05,0,0,1-1.17,1A.91.91,0,0,1,15.7,51.76Zm4,1.18c.16.52-.19.94-.79.93a1.51,1.51,0,0,1-1.36-1c-.16-.52.19-.93.78-.93A1.52,1.52,0,0,1,19.74,52.94Z"/>
                  <path class="cls-18" d="M11.78,57.17l16.56.37c-.29-.67-.44-.68-.64-.68L12,56.53C11.82,56.53,11.67,56.52,11.78,57.17Z"/>
                </g>
                <path class="cls-19" d="M16,82.52a1.35,1.35,0,0,0,1.09.93l21.44,1.73c.5,0,.76-.34.64-.84L32,56.58a1.34,1.34,0,0,0-1.16-.95L8.19,55.26a.6.6,0,0,0-.58.87Z"/>
              </g>
              <path class="cls-20" d="M0,55.5,15.21,57s1.63-6.55,5.33-9a1.74,1.74,0,0,1,.8-.3c-8.6-.83-16.51-1.69-18-.81C1.05,48.2,0,55.5,0,55.5Z"/>
            </g>
            <g>
              <path class="cls-2" d="M31.89,74.26c.24-2,2.23-1.68,4.06-1.73-.55-.89-2.28-1-3.22-.78,0-1.65,3.32-1.12,4.2-.83,2,.66,3,1.43,5.07,1.11h0s2.15-.89,4.88-1.93l-.17,5.1c-2.81.43-4.84.68-4.84.68v0a19.14,19.14,0,0,1-3.32.51c-.91.14-1.88.17-2.79.27a9.79,9.79,0,0,1-2,.37c0-1.29,1.83-1.4,2.64-1.74C34.93,75.24,31.92,75.45,31.89,74.26Z"/>
              <path class="cls-3" d="M49.72,52.16c.13,3,5.33,15.15,5.33,15.15-1.8.3-7.62,2.3-10.46,3.29L43,71.16l.29,5,1.7-.06c11-.6,16.6-4.38,16.6-4.38-1.68-19.22-9-27.85-9-27.85C50,44.34,49.72,52.16,49.72,52.16Z"/>
            </g>
            <path class="cls-2" d="M11.33,70.2a2,2,0,0,1,1-.64,1.25,1.25,0,0,1,1.24.15c.86.78-.41.81-.92,1,.74-.15,2.44.13,2.61,1,.22,1-1.32,1.77-2,2.13,2.73.24.45,2.16-.84.82C11.42,73.62,10.36,71.41,11.33,70.2Z"/>
          </g>
        </g>
      </g>
    </g>
  </g>
</svg>
