<svg xmlns="http://www.w3.org/2000/svg" viewBox="0 0 882.27 578.81">
  <defs>
    <style>
      .cls-1 {
        fill: #ebe7ee;
      }

      .cls-2 {
        fill: #aea6c4;
      }

      .cls-3 {
        fill: #d7d0e3;
      }

      .cls-4 {
        fill: #c7c1da;
      }

      .cls-5 {
        fill: #b9b2d1;
      }

      .cls-6 {
        fill: #82afc9;
      }

      .cls-7 {
        fill: #42748e;
      }

      .cls-8 {
        fill: #3b093e;
      }

      .cls-9 {
        fill: #4d1751;
      }

      .cls-10 {
        fill: #cbc2e0;
      }

      .cls-11 {
        fill: #270d2a;
      }
    </style>
  </defs>
  <title>자산 2</title>
  <g id="레이어_2" data-name="레이어 2">
    <g id="Layer_1" data-name="Layer 1">
      <path class="cls-1" d="M882.27,330.58a302,302,0,0,1-120.44,241.6q-4.5,3.39-9.13,6.63H25.33q-1.74-3.28-3.36-6.63a219.76,219.76,0,0,1,86.05-285,31.16,31.16,0,0,0,15.23-26.92v-.19C123.25,116.43,239.68,0,383.31,0a259.54,259.54,0,0,1,94.16,17.57A179,179,0,0,0,556.15,29q11.69-.91,23.62-.92C746.83,28.08,882.27,163.52,882.27,330.58Z"/>
      <path class="cls-2" d="M464.28,248H295.42V174.19H464.28ZM301,242.44H458.7V179.78H301Z"/>
      <rect class="cls-3" x="321.83" y="190.11" width="116.03" height="41.99"/>
      <g>
        <g>
          <rect class="cls-4" x="495.83" y="184.73" width="226.39" height="11.53"/>
          <rect class="cls-4" x="495.83" y="273.93" width="226.39" height="11.53"/>
        </g>
        <rect class="cls-4" x="603.26" y="106.43" width="11.53" height="257.32"/>
        <path class="cls-5" d="M612.32,112.2a214,214,0,0,1-5.34,43,187.75,187.75,0,0,1-9.34,29.49c-1.58,3.83-3.32,7.68-5.26,11.52-13.56,27-36.11,53.52-73.37,71.2l2.77,6.49,4.94,11.52,31,72.53,4.94,11.53H493.79V100.67H612.22c.07,1.66.12,3.6.13,5.77C612.37,108.2,612.36,110.13,612.32,112.2Z"/>
        <path class="cls-2" d="M519.26,273.93H501.77a4.49,4.49,0,0,1-4.5-4.5h0a4.5,4.5,0,0,1,4.5-4.51h17.49a4.51,4.51,0,0,1,4.51,4.51h0A4.5,4.5,0,0,1,519.26,273.93Z"/>
        <path class="cls-5" d="M605.39,112.2a214.61,214.61,0,0,0,5.33,43,187.82,187.82,0,0,0,9.35,29.49c1.57,3.83,3.32,7.68,5.25,11.52,13.57,27,36.12,53.52,73.38,71.2l-2.78,6.49L691,285.46,660,358,655,369.52h68.89V100.67H605.48c-.06,1.66-.11,3.6-.13,5.77C605.34,108.2,605.34,110.13,605.39,112.2Z"/>
        <path class="cls-2" d="M694.72,273.93h17.49a4.5,4.5,0,0,0,4.51-4.5h0a4.51,4.51,0,0,0-4.51-4.51H694.72a4.51,4.51,0,0,0-4.5,4.51h0A4.49,4.49,0,0,0,694.72,273.93Z"/>
        <path class="cls-4" d="M490.06,100.67V369.52H728V100.67ZM716.46,358H501.59V112.2H716.46Z"/>
      </g>
      <path class="cls-5" d="M755.61,382.13H462.44a13,13,0,0,1,13-13H742.58a13,13,0,0,1,13,13Z"/>
      <g>
        <path class="cls-6" d="M667.08,523s50.53-186.93,108-153.41c43.86,25.58-81,112.73-93.82,157.51"/>
        <path class="cls-7" d="M668.17,524.13l4.31-10.06,2.16-5c.71-1.67,1.43-3.35,2.24-5l4.69-9.87,2.35-4.93,2.53-4.84,5.06-9.67c1.74-3.19,3.59-6.33,5.37-9.5l2.71-4.73c.89-1.58,1.89-3.11,2.83-4.66l5.74-9.27a418.07,418.07,0,0,1,25.49-35.28c2.29-2.82,4.57-5.63,7-8.34l3.57-4.1,3.67-4a202.05,202.05,0,0,1,15.5-15.2,204.53,204.53,0,0,0-14.69,15.91l-3.45,4.17L741.88,404c-2.25,2.81-4.38,5.72-6.51,8.63a417.27,417.27,0,0,0-23.51,36.21l-5.21,9.45c-.86,1.58-1.77,3.13-2.57,4.74l-2.44,4.81c-1.61,3.21-3.28,6.39-4.83,9.63l-4.51,9.78-2.25,4.89-2.08,5-4.13,9.93c-.71,1.65-1.34,3.33-2,5l-1.88,5-3.74,10.08Z"/>
        <path class="cls-6" d="M671,530.46s-27.14-245.19-106-214.19C504.71,339.92,644.84,474,652.3,532.85"/>
        <path class="cls-7" d="M669.35,531.72l-3.47-13.5-1.73-6.74c-.57-2.25-1.14-4.5-1.84-6.71l-4-13.34-2-6.66-2.24-6.59L649.6,465c-1.56-4.36-3.28-8.67-4.91-13l-2.48-6.48c-.82-2.17-1.78-4.28-2.66-6.42l-5.42-12.79a533.23,533.23,0,0,0-25.21-49.39c-2.33-4-4.65-8-7.15-11.86l-3.7-5.86-3.84-5.75a259.6,259.6,0,0,0-16.54-22.15,260.58,260.58,0,0,1,15.38,22.89l3.53,5.92,3.39,6c2.29,4,4.4,8.06,6.52,12.14A536.26,536.26,0,0,1,629,428.43l4.72,12.91c.76,2.16,1.61,4.29,2.31,6.47l2.12,6.53c1.4,4.36,2.88,8.69,4.21,13.06l3.77,13.2,1.88,6.59,1.64,6.66L653,507.17c.57,2.21,1,4.45,1.48,6.69l1.37,6.71L658.56,534Z"/>
        <polygon class="cls-8" points="690.68 574.87 651.86 574.87 648.98 536.57 693.56 536.57 690.68 574.87"/>
        <path class="cls-7" d="M665.91,532S630.46,362,690,365.47c45.46,2.67-19,123-11.13,164.06"/>
        <path class="cls-6" d="M667.25,532.5l-.63-9.79-.31-4.89c-.11-1.63-.22-3.26-.23-4.9l-.25-9.79-.12-4.9.06-4.9.12-9.79c.09-3.26.3-6.52.44-9.77l.24-4.89c.07-1.63.26-3.25.38-4.88l.83-9.74a376.35,376.35,0,0,1,6.07-38.57c.69-3.18,1.37-6.35,2.2-9.5l1.19-4.72,1.32-4.7a182.4,182.4,0,0,1,6.22-18.44A181.38,181.38,0,0,0,679.5,397l-1.08,4.73-.95,4.76c-.66,3.16-1.19,6.35-1.71,9.54a375,375,0,0,0-4.11,38.51l-.33,9.67c0,1.61-.15,3.22-.14,4.84v4.83c0,3.22,0,6.45,0,9.67l.36,9.65.18,4.83.36,4.81.73,9.63c.09,1.6.28,3.2.47,4.8l.55,4.79,1.09,9.58Z"/>
        <rect class="cls-9" x="647.32" y="525.36" width="47.89" height="15.47"/>
      </g>
      <g>
        <path class="cls-2" d="M96.46,373.71V572.07H202.92V373.71Zm99.81,191.71H103.11V380.36h93.16Z"/>
        <rect class="cls-3" x="103.11" y="380.36" width="93.17" height="185.06"/>
      </g>
      <rect class="cls-2" x="99.33" y="412.7" width="100.72" height="6.65"/>
      <rect class="cls-2" x="99.33" y="450.61" width="100.72" height="6.65"/>
      <rect class="cls-2" x="99.33" y="488.52" width="100.72" height="6.65"/>
      <rect class="cls-2" x="99.33" y="526.43" width="100.72" height="6.65"/>
      <path class="cls-2" d="M156.44,392.47H143a5.4,5.4,0,0,1-5.4-5.4h24.28a5.39,5.39,0,0,1-5.39,5.4Z"/>
      <path class="cls-2" d="M156.44,430.21H143a5.39,5.39,0,0,1-5.4-5.39h24.28a5.39,5.39,0,0,1-5.39,5.39Z"/>
      <path class="cls-2" d="M156.44,468H143a5.4,5.4,0,0,1-5.4-5.4h24.28a5.41,5.41,0,0,1-5.39,5.4Z"/>
      <path class="cls-2" d="M156.44,505.7H143a5.39,5.39,0,0,1-5.4-5.39h24.28a5.39,5.39,0,0,1-5.39,5.39Z"/>
      <path class="cls-2" d="M156.44,543.45H143a5.4,5.4,0,0,1-5.4-5.4h24.28a5.41,5.41,0,0,1-5.39,5.4Z"/>
      <path class="cls-2" d="M184.72,337.4H120.88V325.71h63.84a5.84,5.84,0,0,1,5.85,5.84h0A5.85,5.85,0,0,1,184.72,337.4Z"/>
      <path class="cls-3" d="M179.33,350.89H109.19a6.75,6.75,0,0,1-6.75-6.75h0a6.75,6.75,0,0,1,6.75-6.74h70.14a6.73,6.73,0,0,1,6.74,6.74h0A6.75,6.75,0,0,1,179.33,350.89Z"/>
      <path class="cls-10" d="M195.07,373.82H124.25a11.48,11.48,0,0,1-11.47-11.47h0a11.45,11.45,0,0,1,11.47-11.46h70.82Z"/>
      <path class="cls-2" d="M196.84,295.54V126.68h73.83V295.54Zm5.58-163.28V290h62.67V132.26Z"/>
      <rect class="cls-3" x="212.76" y="153.09" width="41.99" height="116.03"/>
      <path class="cls-11" d="M161.35,539.51a7.66,7.66,0,0,1-.27,1.75c-2.88-1.72-6.79-.23-7.1-.11A10.2,10.2,0,0,1,161.35,539.51Z"/>
      <rect class="cls-3" x="286.22" y="116.14" width="46.07" height="21.07"/>
      <rect class="cls-3" x="817.25" y="285.46" width="46.07" height="21.07"/>
      <rect class="cls-3" x="338.2" y="59.63" width="46.07" height="21.07"/>
      <rect class="cls-3" x="408.79" y="107.35" width="46.07" height="21.07"/>
      <rect class="cls-3" x="539.14" y="59.63" width="46.07" height="21.07"/>
      <rect class="cls-3" x="761.34" y="224.56" width="46.07" height="21.07"/>
      <rect class="cls-3" x="418.1" y="32.04" width="46.07" height="21.07"/>
      <rect class="cls-3" x="753.1" y="307.89" width="46.07" height="21.07"/>
      <rect class="cls-3" x="811.05" y="363.36" width="46.07" height="21.07"/>
    </g>
  </g>
</svg>
