<svg xmlns="http://www.w3.org/2000/svg" viewBox="0 0 124.9 148.8">
  <defs>
    <style>
      .cls-1 {
        fill: #969391;
      }

      .cls-2 {
        fill: #2c2c42;
      }

      .cls-3 {
        fill: #838792;
      }

      .cls-4 {
        fill: #737373;
      }

      .cls-5 {
        fill: #96999f;
      }

      .cls-6 {
        fill: #73767a;
      }

      .cls-7 {
        fill: #c0440c;
      }

      .cls-8 {
        fill: #de947a;
      }

      .cls-9 {
        fill: #f0a98f;
      }

      .cls-10 {
        fill: #c2c2c2;
      }

      .cls-11 {
        fill: #d4d4d4;
      }

      .cls-12 {
        fill: #393d45;
      }

      .cls-13 {
        fill: #032733;
      }

      .cls-14 {
        fill: #d8826c;
      }

      .cls-15 {
        fill: #fff;
      }

      .cls-16 {
        fill: #7f5242;
      }

      .cls-17 {
        fill: #400404;
      }

      .cls-18 {
        fill: #f08671;
      }

      .cls-19 {
        fill: #d5503b;
      }

      .cls-20 {
        fill: #302725;
      }

      .cls-21 {
        fill: #99360a;
      }

      .cls-22 {
        fill: #8f99b6;
      }

      .cls-23 {
        fill: #eaeaea;
      }

      .cls-24 {
        fill: #22272e;
      }

      .cls-25 {
        fill: #a2b34c;
      }

      .cls-26 {
        fill: #fb0;
      }

      .cls-27 {
        fill: #e7e9ed;
      }

      .cls-28 {
        fill: #e2e4e8;
      }

      .cls-29 {
        fill: #f2f2f2;
      }

      .cls-30 {
        fill: #e0e0e0;
      }
    </style>
  </defs>
  <title>자산 10</title>
  <g id="레이어_2" data-name="레이어 2">
    <g id="OBJECTS">
      <g>
        <g>
          <rect class="cls-1" x="61.94" y="110" width="5" height="8"/>
          <path class="cls-2" d="M43.94,106.08c0,2.36,2.22,6.92,4.81,6.92h29.7c2.59,0,3.49-4.56,3.49-6.92v-.18c0-2.35-.9-4.9-3.49-4.9H48.75a5.15,5.15,0,0,0-4.81,4.9Z"/>
          <g>
            <g>
              <path class="cls-3" d="M64.39,130.79a5.56,5.56,0,0,0-3.26-.28,38.69,38.69,0,0,1-4,.18,16.94,16.94,0,0,0-7.4,1.09c-1.89.86-4.44,2.57-5.15,4.64-.55,1.59-.51,4.13.71,5.43a.3.3,0,0,0,.49-.29,9.32,9.32,0,0,1,.25-2.14c.09-1.15-.17-2,.62-3a10.31,10.31,0,0,1,5.57-3.5,33.73,33.73,0,0,1,6.11-.48,27.81,27.81,0,0,0,3-.44,8.65,8.65,0,0,0,3.07-.79A.22.22,0,0,0,64.39,130.79Z"/>
              <path class="cls-3" d="M66.09,130.79a5.56,5.56,0,0,1,3.26-.28,38.69,38.69,0,0,0,4,.18,16.94,16.94,0,0,1,7.4,1.09c1.89.86,4.44,2.57,5.15,4.64.55,1.59.51,4.13-.72,5.43-.21.22-.53,0-.48-.29a9.32,9.32,0,0,0-.25-2.14c-.09-1.15.17-2-.62-3a10.34,10.34,0,0,0-5.57-3.5,33.73,33.73,0,0,0-6.11-.48,27.81,27.81,0,0,1-3-.44,8.65,8.65,0,0,1-3.07-.79A.22.22,0,0,1,66.09,130.79Z"/>
              <path class="cls-3" d="M75.72,137.51a5.37,5.37,0,0,0-2-3.57,8.47,8.47,0,0,0-4.09-1.5,17.57,17.57,0,0,1-2.15-.37,18.15,18.15,0,0,0-2.14-.65.47.47,0,0,0-.53.68c1.2,2.19,4.57,1.77,6.62,2.44a4.43,4.43,0,0,1,2.92,3.16,9.91,9.91,0,0,1,0,2.31,3.48,3.48,0,0,0,.11,1.76.26.26,0,0,0,.45,0A6.38,6.38,0,0,0,75.72,137.51Z"/>
              <path class="cls-3" d="M55.86,137.51a5.34,5.34,0,0,1,2-3.57,8.43,8.43,0,0,1,4.09-1.5,17.57,17.57,0,0,0,2.15-.37,17.6,17.6,0,0,1,2.14-.65.46.46,0,0,1,.52.68c-1.2,2.19-4.56,1.77-6.61,2.44a4.43,4.43,0,0,0-2.92,3.16,8.93,8.93,0,0,0,0,2.31,3.48,3.48,0,0,1-.11,1.76.26.26,0,0,1-.45,0A6.38,6.38,0,0,1,55.86,137.51Z"/>
            </g>
            <g>
              <g>
                <g>
                  <path class="cls-3" d="M70.74,143.58a3.4,3.4,0,0,0,0,.45,3.94,3.94,0,0,0,7.69,0,3.4,3.4,0,0,0,0-.45,3.89,3.89,0,0,0-7.75,0Z"/>
                  <path class="cls-2" d="M70.74,143.07c0,.15,0-.07,0-.07h7.69s0,.22,0,.07a3.89,3.89,0,0,0-7.75,0Z"/>
                </g>
                <g>
                  <path class="cls-3" d="M81.63,143.58a3.4,3.4,0,0,0,0,.45,3.94,3.94,0,0,0,7.69,0,3.4,3.4,0,0,0,0-.45,3.89,3.89,0,0,0-7.75,0Z"/>
                  <path class="cls-2" d="M81.63,143.07c0,.15,0-.07,0-.07h7.69s0,.22,0,.07a3.89,3.89,0,0,0-7.75,0Z"/>
                </g>
              </g>
              <g>
                <g>
                  <path class="cls-3" d="M52,143.58a3.4,3.4,0,0,0,0,.45,3.94,3.94,0,0,0,7.69,0,3.4,3.4,0,0,0,0-.45,3.89,3.89,0,0,0-7.75,0Z"/>
                  <path class="cls-2" d="M52,143.07c0,.15,0-.07,0-.07h7.69s0,.22,0,.07a3.89,3.89,0,0,0-7.75,0Z"/>
                </g>
                <g>
                  <path class="cls-4" d="M49.74,143.58a3.4,3.4,0,0,1,0,.45A3.94,3.94,0,0,1,42,144a3.4,3.4,0,0,1,0-.45,3.89,3.89,0,0,1,7.75,0Z"/>
                  <path class="cls-2" d="M49.74,143.07c0,.15,0-.07,0-.07H42s0,.22,0,.07a3.89,3.89,0,0,1,7.75,0Z"/>
                </g>
              </g>
              <rect class="cls-2" x="59.94" y="118" width="7" height="16"/>
            </g>
          </g>
          <g>
            <path class="cls-5" d="M31.12,101.28a4.92,4.92,0,0,0,5.42,4.23c.82-.05,31.43.6,32.69.49,5.5-.45-2.57-2.7,0-5.6,4.35,0,5.23,0,6.21-.42,1.48-.59,14.26-3.52,15.21-6.88s4.64-45.75,4.64-45.75c-1.54-2.56-17.87-.93-25.52,0a7.43,7.43,0,0,0-6.43,7c0,1-.11,2-.17,2.95-.31,5-.58,9.92-.89,14.88-.17,2.7-.29,5.41-.43,8.11-.07,1.48-.15,2.95-.24,4.42a27.06,27.06,0,0,1-.35,5.1C60,94.51,50.65,95,46.65,95c-6.4.08-4.94.31-8,.68-2.74.33-4.71.79-6.08,2.11A4.42,4.42,0,0,0,31.12,101.28Z"/>
            <path class="cls-6" d="M80,105.77a80.85,80.85,0,0,1-12.88.29c-2.12.11-3.49-1.14-3.7-3.71a5.19,5.19,0,0,1,1-3.5c1-1.32,2.47-1.75,4.53-2a80.52,80.52,0,0,1,10.78-.38,24.14,24.14,0,0,0,4.72-.4,10.24,10.24,0,0,0,4.7-2.29c1.8-1.43,1.56-4.49,1.53-6.85,0-1.47,0-2.92,0-4.38.17-6.88.18-13.78.26-20.66,0-3.84.08-7.69.13-11.53,0-2.57,1.78-4.51,3.9-4.34s3.83,2.39,3.79,5l-.5,41.74a3.59,3.59,0,0,1,0,.47A13.36,13.36,0,0,1,95,100.28c-2.76,3.16-6.78,5-12,5.39C82.05,105.75,81,105.66,80,105.77Z"/>
          </g>
          <g>
            <path class="cls-2" d="M71.62,118.91a.61.61,0,0,0,.39-.13.51.51,0,0,0,.07-.77l-5.87-6.3a.63.63,0,0,0-.84-.06.51.51,0,0,0-.06.77l5.86,6.3A.65.65,0,0,0,71.62,118.91Z"/>
            <path class="cls-2" d="M69.93,119.12a2.69,2.69,0,1,0,2.69-2.68A2.69,2.69,0,0,0,69.93,119.12Z"/>
          </g>
        </g>
        <g>
          <path class="cls-7" d="M55.07,22.79c1.12-3,1.12-11.3,2.46-15.64,1.55-5,5.31-6.33,8.84-6.35A10,10,0,0,1,69.21.12C73.51-.37,78.07.61,81,3.74c7.19,7.8,6.33,19.65,11.21,28.71,4.44,8.23,15.77,16.87,7.8,26.45-6.67,8-22,12.67-32,10s-16-12.36-17.13-22C49.79,38.08,52,30.93,55.07,22.79Z"/>
          <path class="cls-8" d="M39.22,98.68S38,93.6,49.55,88.9,65.75,83.69,66.4,87s-2.17,10.22-18.61,14.66C41.1,103.46,39.22,98.68,39.22,98.68Z"/>
          <path class="cls-8" d="M46.63,97.62a0,0,0,0,1,0,0c-.41-3.16-4.4-3.71-6.68-2-1.86,1.42-3.67,10.24-4.24,13.58-.9,5.21-1.6,13-2.49,18.27-.26,1.52-.52,3-.73,4.55a54.55,54.55,0,0,1-2.43,4.9c-1,1.83-1.95,1.69-1,2.1,1.5.68,5.77-.66,6.77-3.59a15.38,15.38,0,0,0,1.06-4C45.71,114.31,47,100.2,46.63,97.62Z"/>
          <path class="cls-9" d="M47.42,97.83S46.93,92.64,59,89.52s16.75-3,17,.37-3.52,9.83-20.41,12C48.64,102.82,47.42,97.83,47.42,97.83Z"/>
          <path class="cls-10" d="M38.61,96.36C43,87.11,61,84.29,61,84.29l2.82-6.59,6.58-.15c10.81,20.53-10.35,18-13,19s-9.87,6.27-9.87,6.27c-1.41,8.15-7.53,28.37-9.09,28.52s-6.11-1.72-6.11-1.72S34.23,105.6,38.61,96.36Z"/>
          <g>
            <path class="cls-9" d="M53.2,97.63a3.13,3.13,0,0,0-5.73-.26c-1,2.1,0,12.93,1,16.17,1.52,5.07,3.08,10.13,4.6,15.2.45,1.47.9,2.94,1.39,4.4a52.12,52.12,0,0,1,0,5.46c-.07,2.08,0,5.31,1,5.26,1.64-.06,4.49-4.79,4.07-7.86a29.35,29.35,0,0,0-1.48-5.4C57.9,98,53.54,98.49,53.2,97.63Z"/>
            <path class="cls-11" d="M79.83,73.16s9.67,18.36,4.6,22.89-27.17,7.2-27.17,7.2,2.36,19.9,1.57,26.33l-6.11.94s-9.56-27.9-5.17-34.79S63.38,86.48,68.23,87c0,0-2.35-6.58-.62-8.93S79.83,72.54,79.83,73.16Z"/>
          </g>
          <path class="cls-12" d="M81.12,76.18c-1.34-11.4,4.93-33.27,4.93-33.27s-16.73-4.94-27.43,0l5.47,35.35a20.29,20.29,0,0,0,7.1.15A96.55,96.55,0,0,0,81.12,76.18Z"/>
          <path class="cls-13" d="M78.65,60S66.07,61.3,62.6,58.69C62.6,58.69,66.94,69.1,78.65,60Z"/>
          <g>
            <path class="cls-14" d="M76.22,42.45c.44,2.59-3,2.81-3,2.81-1.53,0-3.92-.47-3.92-2L70,33.67a2.78,2.78,0,0,1,2.77-2.78h0a2.78,2.78,0,0,1,2.78,2.78Z"/>
            <path class="cls-9" d="M64.28,11.92a20.26,20.26,0,0,0,4.63-6.08c3.19,5.39,7.41,9.75,13.9,11.05a36.84,36.84,0,0,1,.44,5.88c0,9.1-6.69,14.47-14.06,14.31C62.25,36.93,58,30.27,58,21.18a33.68,33.68,0,0,1,.22-3.94C60.14,15.36,62.35,13.79,64.28,11.92Z"/>
            <path class="cls-14" d="M70.64,27.69s-1.57,2.66-3.28-.06Z"/>
            <path class="cls-15" d="M72.28,22.27a3.19,3.19,0,1,0,3.19-3.19A3.19,3.19,0,0,0,72.28,22.27Z"/>
            <g>
              <path class="cls-16" d="M73.23,24c.57,1.34,1.85,2.08,2.86,1.66s1.39-1.86.82-3.2-1.84-2.09-2.86-1.66S72.67,22.69,73.23,24Z"/>
              <path class="cls-17" d="M73.77,23.81a1.47,1.47,0,1,0,.58-2.28A1.7,1.7,0,0,0,73.77,23.81Z"/>
              <path class="cls-15" d="M73,22.21c.1.26.5.34.87.18s.58-.49.47-.75-.5-.34-.87-.19S72.89,22,73,22.21Z"/>
            </g>
            <path class="cls-18" d="M72.76,27.34c0,1.45,1.5,2.63,3.36,2.63s3.35-1.18,3.35-2.63-1.5-2.62-3.35-2.62S72.76,25.9,72.76,27.34Z"/>
            <path class="cls-19" d="M73,29.28s-5.15,2.37-7.33.2C65.71,29.48,67.69,34.43,73,29.28Z"/>
            <path class="cls-20" d="M72.28,22.27A3.16,3.16,0,0,1,74,19.18c3.07-1.59,4.75,2.07,5.74,2.67,0,0-.64.64-1.11.42C78.66,22.27,75,17.92,72.28,22.27Z"/>
            <g>
              <path class="cls-15" d="M66.44,22.71a3.2,3.2,0,1,1-3.2-3.19A3.19,3.19,0,0,1,66.44,22.71Z"/>
              <g>
                <path class="cls-16" d="M61.07,24.14a2.16,2.16,0,1,0,4.13-.87,2.16,2.16,0,1,0-4.13.87Z"/>
                <path class="cls-17" d="M61.67,24a1.53,1.53,0,1,0,2.93-.62,1.53,1.53,0,1,0-2.93.62Z"/>
                <path class="cls-15" d="M61.21,22.29c.06.28.45.43.86.34s.71-.38.65-.65-.44-.43-.86-.34S61.15,22,61.21,22.29Z"/>
              </g>
              <path class="cls-20" d="M66.49,22.32a2.73,2.73,0,0,0-1.75-2.75C61.67,18.17,60,21.42,59,22c0,0,.64.57,1.11.37C60.11,22.32,63.4,18.37,66.49,22.32Z"/>
            </g>
            <path class="cls-21" d="M78.85,17.48s-3.24-2.9-6.35-1.64c-.72.29-.89.63-1.35,2A9.79,9.79,0,0,1,78.85,17.48Z"/>
            <path class="cls-21" d="M59.73,18.93s2.13-3.34,5.05-2.6c.68.17.9.48,1.59,1.77A7.56,7.56,0,0,0,59.73,18.93Z"/>
            <path class="cls-18" d="M59.5,27.63C59.5,28.92,61,30,62.86,30s3.35-1,3.35-2.34-1.5-2.33-3.35-2.33S59.5,26.35,59.5,27.63Z"/>
            <g>
              <g>
                <path class="cls-9" d="M82.35,20.06s3.45-4.71,4.44-.18c.8,3.6-2.42,6.25-4.41,5.58S82.35,20.06,82.35,20.06Z"/>
                <path class="cls-14" d="M82.31,20.9s2.44-3,3.07-1.57a5.51,5.51,0,0,1,.25,3s-.25-1.88-1.74-1c0,0,1.06,3.09-1.59,1.91A1.76,1.76,0,0,1,82.31,20.9Z"/>
              </g>
              <path class="cls-15" d="M81.82,25.39a.81.81,0,1,0,.8-.86A.83.83,0,0,0,81.82,25.39Z"/>
            </g>
          </g>
          <g>
            <path class="cls-12" d="M58.68,132.49s2.43,1.72,2.8,2.84-.92,2.31-1.55,4.81-2,6.4-7.15,6.78c0,0-1.38,0-.37-1.88s2.13-7.66,2-10.29C54.41,134.75,57.68,135.13,58.68,132.49Z"/>
            <path class="cls-13" d="M55.51,139.84a1.76,1.76,0,0,0-1.66.24c-.34.31-.77.86-.48,1.33a.09.09,0,0,0,.15,0,4.27,4.27,0,0,1,.88-.82c.38-.26.8,0,1.19-.16A.33.33,0,0,0,55.51,139.84Z"/>
            <path class="cls-13" d="M56.07,137.73c-.44-.53-1.32-.32-1.83,0a2,2,0,0,0-.86,1.81.15.15,0,0,0,.26.1c.33-.31.41-.75.77-1a1.69,1.69,0,0,1,.63-.31c.25-.06.51.1.75.13S56.27,138,56.07,137.73Z"/>
            <path class="cls-13" d="M55.93,135.61a6.71,6.71,0,0,1-.75.11,4.44,4.44,0,0,0,.85-2.06c.11-.64.39-1.7-.14-2.24-.37-.37-.85,0-1.07.34a6.58,6.58,0,0,0-.56,1.41,2.77,2.77,0,0,0-.12,1.23,3.35,3.35,0,0,0-1.53-1.32,1.58,1.58,0,0,0-2,.47c-.46.77.49,1.51,1.07,1.79a4.56,4.56,0,0,0,2.66.31l0,0-.12.15a.22.22,0,0,0-.05.11,1,1,0,0,0-.67,1,.25.25,0,0,0,.17.23h.06c.17,0,.21-.14.31-.26a1.11,1.11,0,0,1,.77-.41c.45-.05,1,.07,1.35-.21A.38.38,0,0,0,55.93,135.61ZM55,132.7c.11-.29.23-.57.36-.85s.36-.21.38.14a5.57,5.57,0,0,1-1,3.11c0-.31-.11-.62-.14-.94A3.72,3.72,0,0,1,55,132.7Zm-3.48,1.71,0-.76a1.16,1.16,0,0,1,.64,0,2.21,2.21,0,0,1,1.08.66,6.65,6.65,0,0,1,.67.82A4.86,4.86,0,0,1,51.53,134.41Z"/>
          </g>
          <g>
            <path class="cls-12" d="M36.72,132.66s1.16,3,.76,4.1S35.07,138.46,33,140s-5.55,3.76-9.81.85c0,0-1.08-.86.87-1.7s6.44-4.67,8-6.81A4.35,4.35,0,0,0,36.72,132.66Z"/>
            <path class="cls-13" d="M29.75,137a1.76,1.76,0,0,0-1.45-.84c-.45,0-1.14.19-1.2.73a.09.09,0,0,0,.11.11A4.74,4.74,0,0,1,28.4,137c.46,0,.59.54,1,.62A.34.34,0,0,0,29.75,137Z"/>
            <path class="cls-13" d="M31.5,135.74c0-.7-.83-1.07-1.42-1.16a2,2,0,0,0-1.79.88.15.15,0,0,0,.13.25c.45,0,.79-.34,1.25-.33a1.64,1.64,0,0,1,.68.15c.23.11.34.39.51.57S31.51,136,31.5,135.74Z"/>
            <path class="cls-13" d="M32.71,134c-.2-.09-.42-.24-.66-.38a4.26,4.26,0,0,0,2-1.09c.49-.42,1.37-1.08,1.28-1.83-.06-.52-.66-.53-1-.4a6.61,6.61,0,0,0-1.32.75,2.91,2.91,0,0,0-.86.89,3.31,3.31,0,0,0-.37-2c-.42-.63-1.07-1.17-1.85-.87s-.55,1.49-.27,2.06a4.5,4.5,0,0,0,1.89,1.9.09.09,0,0,0,0,.05l-.19,0a.24.24,0,0,0-.11.06,1,1,0,0,0-1.15.37.24.24,0,0,0,0,.29l0,0c.14.11.25,0,.4,0a1.21,1.21,0,0,1,.87.16c.38.24.7.66,1.18.69A.39.39,0,0,0,32.71,134Zm1.1-2.85c.26-.16.53-.3.8-.44s.41.06.21.35a5.59,5.59,0,0,1-2.68,1.84c.16-.27.3-.56.48-.82A3.62,3.62,0,0,1,33.81,131.14ZM30,130.31l.48-.58a1.16,1.16,0,0,1,.5.4,2.14,2.14,0,0,1,.44,1.19,6.13,6.13,0,0,1,0,1.05A4.78,4.78,0,0,1,30,130.31Z"/>
          </g>
          <path class="cls-22" d="M63.16,78.54s7,3.35,18.06-1.84c-.1-.52-.33-3.34-.33-3.34L63.66,75.53Z"/>
          <polygon class="cls-11" points="74.36 74.03 75.2 79.38 77.37 79.21 76.54 73.52 74.36 74.03"/>
          <path class="cls-23" d="M65.83,74.7l-.67,4.85,5.52.5L71,74Zm3.52,3.84L66.94,78V75.78l2.84-.25Z"/>
        </g>
        <g>
          <path class="cls-12" d="M30,72.86A47.87,47.87,0,0,0,39.82,72c4.78-.92,10.2-2.82,13.61-6.69C57.4,60.81,61,52.7,61,52.7s-1-9-2.36-9.79S48,60.68,45.62,62.15c-1.38.84-6.15,2.53-10.27,4.08-3.07,1.16-5.78,2.25-6.43,2.87C27.39,70.55,30,72.86,30,72.86Z"/>
          <g>
            <path class="cls-24" d="M27.36,72.87C27.93,70.08,29.79,68,32,68s4.07,2,4.64,4.84Z"/>
            <path class="cls-9" d="M34.53,70.57A1.46,1.46,0,1,0,36,69.41,1.32,1.32,0,0,0,34.53,70.57Z"/>
            <path class="cls-9" d="M32.55,68c0,.92.43,1.67,1,1.67s1-.75,1-1.67-.43-1.66-1-1.66S32.55,67.11,32.55,68Z"/>
            <path class="cls-9" d="M29.74,68.15c.3.86,1,1.41,1.46,1.22s.67-1.05.37-1.92-.95-1.41-1.46-1.21S29.44,67.29,29.74,68.15Z"/>
            <path class="cls-9" d="M27.43,70.41c.57.71,1.36,1,1.77.62s.28-1.23-.28-1.93-1.36-1-1.77-.61S26.87,69.71,27.43,70.41Z"/>
            <path class="cls-9" d="M26.76,72.69c.83.27,1.64.06,1.8-.47s-.39-1.2-1.23-1.47-1.64-.06-1.8.48S25.92,72.42,26.76,72.69Z"/>
          </g>
        </g>
        <g>
          <path class="cls-9" d="M84.4,72.37S79,63,70.75,72.8Z"/>
          <g>
            <path class="cls-12" d="M86.05,42.91c.66.05,12.23,15,13.67,27.53,0,0,.08,4.93-7-2.26-2.82-2.87-3.84-10.08-9-16.06C83.69,52.12,83.37,42.7,86.05,42.91Z"/>
            <path class="cls-12" d="M80.49,68.18c1.87-.88,7.11-1.52,8.41-1.86,8.29-2.11,10,5.15,10,5.15,1.43,2.4-10,2.1-16.76,1.55C81.87,71.39,80.69,69.82,80.49,68.18Z"/>
          </g>
        </g>
        <g>
          <path class="cls-25" d="M94.8,49.32c-7,2,3.14,13,4.14,14.8V63C99.94,60.84,101.17,47.56,94.8,49.32Z"/>
          <path class="cls-25" d="M106.7,46.38c-6.14,1.52-6.63,13.36-3.77,17.62l2.26-1.13c2.16-4.06,5.59-6.67,5.75-11.59C111,48.38,110.26,45.5,106.7,46.38Z"/>
          <path class="cls-25" d="M116.33,46c-2.91-3.6-6.39.51-6.39,3.85v.75C112.94,52.47,119.84,50.32,116.33,46Z"/>
          <polygon class="cls-26" points="93.65 60.73 95.53 74.28 109.46 74.66 110.59 61.11 93.65 60.73"/>
        </g>
        <g>
          <path class="cls-27" d="M18.88,69.69a.53.53,0,0,0,0,.13,3.13,3.13,0,0,0,3.19,3.08l43.31.57a3.14,3.14,0,0,0,3.28-3s0-.09,0-.13Z"/>
          <g>
            <path class="cls-28" d="M59.06,68.28a1.75,1.75,0,0,1-1.61,2.22L21,70a2.28,2.28,0,0,1-2.16-2L16.45,48.12A1.84,1.84,0,0,1,18.09,46l35.47-3.11A2.25,2.25,0,0,1,55.76,45Z"/>
            <path class="cls-29" d="M39.87,57.36a2.21,2.21,0,0,1-2,2.67,2.8,2.8,0,0,1-2.68-2.5,2.22,2.22,0,0,1,2-2.66A2.76,2.76,0,0,1,39.87,57.36Z"/>
          </g>
        </g>
        <g>
          <g>
            <polygon class="cls-30" points="6.57 148.8 21.66 79.97 18.03 78.75 2.67 148.8 6.57 148.8"/>
            <polygon class="cls-30" points="118.32 148.8 103.24 79.97 106.86 78.75 122.23 148.8 118.32 148.8"/>
          </g>
          <rect class="cls-24" y="72.82" width="124.9" height="7.41"/>
        </g>
      </g>
    </g>
  </g>
</svg>
